<?xml version="1.0" standalone="no"?>
<!DOCTYPE svg PUBLIC "-//W3C//DTD SVG 20010904//EN"
 "http://www.w3.org/TR/2001/REC-SVG-20010904/DTD/svg10.dtd">
<svg version="1.0" xmlns="http://www.w3.org/2000/svg"
 width="600.000000pt" height="1100.000000pt" viewBox="0 0 600.000000 1100.000000"
 preserveAspectRatio="xMidYMid meet">

<g transform="translate(0.000000,1100.000000) scale(0.100000,-0.100000)"
fill="#000000" stroke="none">
<path d="M2925 10955 c-200 -44 -319 -132 -392 -291 -23 -50 -28 -76 -31 -169
-3 -74 1 -137 11 -192 15 -78 15 -83 -4 -120 -17 -32 -20 -51 -16 -119 6 -107
32 -167 83 -191 25 -12 40 -27 45 -46 4 -15 11 -126 15 -245 l7 -218 -49 -41
c-54 -45 -100 -70 -253 -138 -58 -26 -135 -62 -172 -81 -37 -18 -107 -42 -156
-53 -335 -73 -538 -272 -647 -631 -28 -93 -32 -100 -121 -210 -70 -87 -113
-159 -154 -256 -15 -38 -55 -127 -88 -199 -33 -71 -68 -152 -78 -179 -12 -33
-44 -78 -99 -139 -161 -177 -229 -269 -309 -417 -63 -118 -105 -222 -217 -545
-54 -154 -112 -315 -129 -357 -23 -58 -33 -105 -41 -185 -5 -61 -25 -163 -44
-233 -59 -217 -60 -223 -35 -341 37 -180 44 -195 132 -271 43 -37 84 -65 90
-62 13 5 77 132 77 153 0 7 -12 39 -26 71 -25 56 -25 57 -10 141 16 93 31 139
44 139 5 0 15 -27 21 -60 20 -99 80 -147 136 -106 16 12 17 22 11 107 -4 52
-11 150 -14 219 -6 105 -11 131 -30 161 -36 59 -30 103 28 198 54 91 97 144
241 301 162 176 209 239 344 465 115 193 197 308 370 525 86 107 204 266 263
353 l106 157 26 -92 c33 -119 69 -213 141 -368 110 -239 104 -208 104 -585 0
-349 -2 -378 -56 -674 -16 -90 -29 -185 -29 -210 0 -26 -11 -90 -25 -142 -138
-515 -191 -946 -182 -1461 5 -290 15 -389 67 -679 l21 -115 -26 -250 c-33
-314 -37 -336 -91 -522 -86 -295 -89 -314 -88 -612 0 -202 6 -314 22 -470 39
-360 62 -632 62 -742 0 -115 -19 -237 -46 -294 -31 -66 -109 -140 -188 -178
-40 -20 -78 -36 -83 -36 -18 0 -93 -89 -93 -110 0 -52 25 -67 195 -119 63 -19
122 -45 160 -71 80 -53 144 -74 230 -74 118 1 180 36 203 114 6 19 13 174 17
345 7 349 12 385 86 679 59 232 113 407 175 561 24 61 48 130 53 155 19 82 10
324 -23 625 -29 262 -30 299 -7 349 11 25 40 74 64 108 89 126 104 171 153
468 46 278 68 381 163 750 43 168 86 337 95 375 26 112 63 349 76 488 7 70 15
126 17 124 2 -3 13 -85 24 -183 33 -294 59 -420 179 -870 75 -279 101 -399
145 -671 19 -120 42 -243 51 -273 20 -72 66 -162 114 -225 82 -108 82 -110 44
-473 -25 -243 -34 -543 -18 -609 4 -15 22 -63 40 -105 81 -191 229 -711 254
-895 6 -43 13 -211 16 -373 6 -316 14 -378 56 -417 36 -34 76 -44 170 -44 101
1 161 20 233 75 33 25 81 46 149 67 194 60 218 76 196 135 -18 46 -39 64 -135
109 -94 45 -190 128 -226 195 -10 17 -25 83 -34 147 -22 141 -19 211 30 703
51 515 60 691 46 838 -12 129 -36 246 -76 374 -56 176 -76 282 -100 524 -31
302 -31 315 0 494 54 317 70 570 55 880 -20 426 -72 783 -157 1090 -19 69 -41
177 -48 240 -7 63 -27 194 -43 290 -41 233 -55 437 -49 694 6 248 11 271 101
465 65 139 107 247 147 381 13 41 26 79 30 83 4 5 50 -56 103 -135 97 -145
164 -234 314 -417 93 -113 229 -313 342 -501 104 -172 167 -258 299 -404 156
-173 245 -288 286 -370 38 -75 44 -116 19 -137 -29 -24 -37 -61 -45 -209 -5
-80 -12 -178 -15 -217 l-6 -73 28 -11 c67 -25 119 23 131 120 4 32 11 51 19
51 15 0 29 -46 46 -153 11 -76 11 -78 -17 -138 l-29 -60 21 -42 c12 -23 29
-59 38 -79 10 -21 21 -38 26 -38 11 0 137 106 161 135 56 69 79 364 38 496
-31 104 -48 188 -59 297 -7 67 -19 122 -36 161 -13 32 -63 169 -109 305 -202
581 -287 742 -538 1013 -85 92 -98 111 -125 185 -53 142 -219 485 -267 551
-26 34 -66 86 -90 116 -33 40 -49 73 -67 135 -62 220 -155 368 -303 480 -109
83 -229 136 -364 162 -44 8 -99 28 -135 48 -34 19 -120 60 -190 90 -132 57
-231 111 -260 143 -34 38 -33 455 1 510 4 6 23 17 43 26 51 21 72 70 77 184 3
70 1 99 -12 124 -20 40 -20 53 0 153 27 133 -3 264 -96 410 -28 44 -36 64 -28
73 24 29 -57 100 -140 122 -22 6 -78 11 -125 10 -46 -1 -94 4 -105 10 -26 14
-51 13 -127 -4z m40 -40 c-16 -13 -26 -27 -23 -30 3 -4 50 3 104 15 163 35
276 23 324 -35 14 -16 13 -17 -18 -11 -17 4 -32 5 -32 1 0 -4 25 -34 56 -68
64 -71 127 -191 144 -273 14 -68 10 -135 -18 -264 -12 -52 -27 -140 -33 -195
l-12 -100 -78 -117 c-43 -64 -83 -119 -88 -122 -5 -4 -56 12 -112 35 -132 53
-192 52 -317 -5 -46 -21 -90 -35 -98 -32 -12 5 -121 163 -152 223 -7 12 -21
82 -31 156 -11 74 -26 161 -35 193 -33 134 -29 253 14 367 49 130 199 244 365
277 66 13 72 11 40 -15z m-410 -844 c4 -47 13 -104 21 -126 16 -47 9 -58 -17
-27 -35 44 -55 178 -34 241 12 38 23 7 30 -88z m980 63 c14 -79 -26 -234 -61
-234 -17 0 -17 0 0 41 8 19 17 66 21 104 8 92 15 125 25 125 4 0 11 -16 15
-36z m-143 -562 l-3 -228 40 -37 c23 -20 41 -38 41 -39 0 -2 -51 0 -112 3
-132 7 -724 2 -765 -6 l-28 -6 23 20 c13 11 36 29 50 40 l27 19 0 227 0 226
20 -24 c11 -14 32 -40 46 -58 l26 -34 44 17 c24 9 73 29 108 44 88 36 164 31
278 -20 45 -20 88 -36 95 -36 16 0 53 37 87 88 12 17 23 32 24 32 1 0 1 -103
-1 -228z m123 -345 c100 -24 393 -154 378 -167 -4 -4 -37 -17 -72 -30 -62 -23
-118 -61 -214 -146 -27 -24 -63 -46 -80 -49 -18 -4 -99 3 -182 15 -200 28
-424 28 -633 0 -86 -12 -170 -19 -187 -16 -18 4 -60 32 -100 68 -88 77 -145
114 -212 135 -29 9 -53 21 -53 26 0 12 186 98 293 136 48 17 123 35 165 40
123 15 824 6 897 -12z m-1285 -225 c54 -22 150 -87 157 -107 4 -13 -205 -187
-448 -372 -88 -68 -185 -101 -372 -128 -62 -9 -127 -23 -146 -31 -19 -8 -37
-12 -39 -9 -11 10 50 179 95 267 149 290 514 474 753 380z m1904 -6 c115 -43
204 -96 277 -164 118 -109 182 -210 233 -367 32 -99 33 -109 4 -101 -25 7
-133 28 -243 45 -80 13 -188 47 -225 70 -65 40 -413 314 -482 379 -27 26 -35
39 -27 48 23 28 138 94 189 109 76 21 188 13 274 -19z m-1667 -228 c158 -290
364 -780 385 -917 6 -36 8 -115 6 -176 -7 -140 -35 -225 -163 -502 -137 -294
-136 -291 -144 -529 -9 -254 -6 -249 -156 -326 -104 -53 -187 -109 -252 -170
-54 -50 -78 -61 -69 -30 13 41 47 291 62 462 17 194 14 410 -6 525 -17 91 -48
180 -101 287 -57 113 -88 193 -131 333 -24 80 -31 122 -33 212 -2 65 -15 172
-30 254 -29 153 -27 194 8 226 12 11 103 81 202 156 99 74 220 169 270 211 49
42 92 76 95 76 4 0 29 -42 57 -92z m1204 75 c28 -33 314 -257 535 -419 28 -20
29 -25 27 -91 -1 -38 -9 -111 -18 -163 -10 -52 -21 -156 -24 -230 -7 -119 -12
-148 -45 -245 -21 -60 -63 -166 -93 -235 -139 -315 -143 -334 -143 -620 0
-204 14 -386 45 -584 13 -83 22 -153 19 -155 -2 -3 -23 14 -47 36 -65 63 -128
107 -234 164 -191 102 -184 89 -194 359 -8 237 -5 227 -127 485 -251 530 -246
637 54 1300 115 253 201 415 219 415 7 0 19 -7 26 -17z m-366 -19 c55 -8 137
-16 183 -16 45 -1 81 -4 79 -7 -112 -212 -273 -573 -361 -813 -120 -327 -141
-367 -189 -354 -36 9 -48 32 -135 267 -124 333 -187 479 -322 749 l-79 159 73
0 c40 0 124 7 187 15 63 9 134 17 159 20 76 7 300 -4 405 -20z m-1512 -511 c3
-54 13 -132 22 -173 9 -41 17 -109 18 -151 l2 -75 -74 -115 c-138 -214 -226
-333 -314 -421 -88 -89 -174 -148 -214 -148 -30 0 -42 25 -58 128 -20 122 -43
139 -149 107 -27 -8 -55 -15 -63 -15 -20 0 -16 76 8 151 19 57 41 109 165 376
71 156 196 313 280 353 28 14 94 29 177 40 73 11 143 23 157 29 14 5 28 10 31
10 3 1 9 -43 12 -96z m2670 57 c54 -5 117 -15 140 -22 87 -26 247 -213 319
-373 15 -33 54 -119 87 -192 81 -177 118 -311 91 -328 -6 -4 -41 1 -78 11 -38
10 -76 15 -85 11 -29 -11 -46 -51 -64 -148 -16 -82 -21 -94 -40 -97 -54 -8
-219 117 -310 235 -80 105 -245 346 -277 407 -32 61 -33 118 -6 271 11 61 21
141 21 180 1 38 3 73 5 77 3 4 26 0 52 -8 26 -8 91 -19 145 -24z m-1459 -765
c44 -15 76 10 117 93 l37 72 7 -87 c13 -163 42 -252 175 -533 124 -263 121
-251 131 -491 6 -149 12 -217 23 -244 9 -21 16 -38 16 -39 0 -1 -34 0 -76 2
-188 10 -315 -63 -385 -222 l-21 -49 -39 73 c-49 95 -69 114 -158 158 -72 36
-79 37 -181 37 l-107 0 15 35 c10 24 17 98 22 236 5 110 13 220 20 244 6 24
51 127 100 229 144 306 189 445 190 586 l0 70 43 -80 c32 -59 50 -82 71 -90z
m2335 -340 c163 -198 239 -360 426 -907 60 -177 85 -265 81 -282 -9 -36 -55
-87 -93 -103 -65 -27 -129 6 -187 95 -49 77 -117 160 -267 328 -143 160 -185
218 -325 448 -65 108 -149 239 -186 291 -38 52 -68 97 -68 100 0 3 18 -4 41
-15 55 -28 100 -23 117 12 7 15 19 67 27 114 8 48 18 91 23 96 5 5 45 4 98 -2
80 -10 90 -10 101 6 7 10 13 23 13 28 1 13 115 -108 199 -209z m-4410 184 c16
-21 22 -21 94 -12 110 13 111 12 129 -102 10 -59 23 -104 34 -116 22 -25 65
-24 116 2 l40 21 -46 -64 c-51 -70 -150 -224 -276 -428 -100 -164 -138 -213
-278 -368 -130 -142 -207 -237 -255 -312 -19 -30 -44 -63 -55 -74 -27 -24
-103 -32 -142 -16 -40 17 -80 65 -80 97 0 51 139 480 230 708 71 179 176 361
279 485 49 60 182 200 189 200 2 0 12 -10 21 -21z m1883 -1127 c58 -28 130
-100 157 -155 35 -73 43 -183 39 -550 l-3 -342 -25 -45 c-50 -89 -118 -108
-350 -97 -236 11 -364 76 -435 220 -80 162 -67 312 61 700 52 157 112 226 235
273 56 21 77 24 170 21 83 -3 115 -8 151 -25z m735 7 c105 -35 184 -103 221
-190 24 -55 94 -294 122 -412 50 -218 6 -389 -131 -497 -96 -76 -231 -105
-452 -98 -153 5 -182 15 -224 81 -27 41 -28 45 -36 272 -10 286 -2 556 20 627
29 99 104 181 198 218 71 27 201 27 282 -1z m-1292 -198 c-52 -133 -123 -393
-135 -488 -27 -218 62 -403 233 -483 91 -43 161 -54 352 -54 181 -1 205 4 263
57 l22 20 0 -29 c0 -56 -32 -300 -56 -434 -30 -165 -56 -272 -145 -600 -38
-140 -90 -354 -114 -475 -48 -238 -74 -334 -110 -405 -45 -87 -88 -116 -149
-99 -62 17 -86 90 -106 318 -5 63 -14 119 -19 124 -14 14 -55 -47 -109 -163
-77 -163 -110 -184 -165 -102 -40 60 -60 122 -101 318 -48 227 -63 343 -75
565 -25 457 35 1001 164 1494 19 72 37 157 40 190 11 109 15 123 56 177 35 47
178 173 186 164 2 -2 -13 -45 -32 -95z m1623 11 c87 -76 110 -120 128 -239 8
-54 28 -146 45 -206 119 -422 190 -1100 160 -1534 -18 -269 -78 -615 -130
-754 -27 -71 -75 -139 -99 -139 -30 0 -56 37 -126 178 -79 158 -97 168 -108
62 -4 -36 -12 -110 -18 -165 -6 -55 -18 -115 -28 -134 -36 -72 -110 -95 -159
-49 -63 58 -101 169 -158 453 -41 201 -83 375 -155 635 -64 234 -95 370 -119
520 -25 157 -52 392 -46 398 3 3 22 -7 42 -21 61 -42 118 -51 277 -44 77 4
171 13 209 21 137 30 244 113 304 234 26 53 28 66 31 207 l3 150 -66 213 c-36
118 -74 231 -85 252 -11 22 -20 42 -20 46 0 11 51 -26 118 -84z m-3665 -133
c36 -52 85 -73 154 -66 45 5 53 3 53 -11 0 -9 14 -46 32 -82 29 -61 32 -75 40
-220 16 -267 17 -245 -13 -248 -40 -5 -65 35 -80 124 -6 40 -15 74 -18 74 -3
-1 -37 -20 -76 -44 l-70 -43 -27 -109 -27 -109 49 -78 c47 -74 63 -127 39
-127 -24 0 -131 87 -150 122 -5 10 -22 78 -38 152 l-29 135 35 118 c48 163 73
279 73 339 0 58 9 114 19 114 3 -1 19 -19 34 -41z m5677 -29 c1 -80 20 -182
60 -323 44 -153 47 -193 25 -302 -34 -162 -44 -184 -113 -237 -104 -79 -120
-58 -48 60 25 39 47 80 50 90 7 21 -37 220 -51 232 -21 18 -143 78 -147 72 -2
-4 -7 -29 -11 -57 -16 -110 -54 -161 -94 -127 -20 17 -20 19 -6 117 8 55 14
140 14 188 -1 79 2 94 30 147 17 33 31 70 31 84 0 24 2 25 68 24 83 -1 121 17
152 68 26 45 40 33 40 -36z m-5590 -497 c0 -5 -7 -48 -15 -97 -15 -89 -15 -90
10 -144 27 -58 31 -87 15 -97 -15 -9 -90 115 -90 150 0 31 32 164 44 184 8 12
36 15 36 4z m5489 -7 c11 -13 51 -162 51 -190 0 -23 -79 -136 -95 -136 -22 0
-18 27 11 90 21 44 25 64 19 100 -20 147 -17 174 14 136z m-3473 -2245 c22
-76 68 -121 123 -121 59 0 93 21 132 81 18 29 35 47 36 42 8 -23 -47 -145
-105 -230 -87 -129 -96 -156 -88 -256 4 -45 10 -98 13 -117 l6 -35 -36 32
c-59 52 -105 54 -222 10 -50 -19 -61 -13 -170 84 -44 39 -99 80 -123 91 -31
14 -42 24 -38 35 11 28 35 194 51 357 21 202 29 248 40 221 50 -130 92 -185
139 -185 38 0 76 49 140 180 l60 125 13 -130 c7 -71 20 -154 29 -184z m1518
202 c44 -106 96 -180 132 -189 46 -12 70 10 115 101 37 75 44 84 51 65 5 -12
17 -115 29 -229 11 -113 27 -234 35 -269 18 -80 18 -92 -1 -92 -23 0 -60 -26
-159 -111 -48 -43 -99 -79 -111 -82 -13 -2 -47 6 -77 19 -87 38 -152 27 -207
-34 -17 -20 -22 -22 -17 -8 4 11 9 67 13 126 7 128 0 155 -69 247 -27 37 -58
84 -68 104 -23 44 -62 160 -57 166 3 2 16 -16 31 -40 14 -25 40 -57 58 -72 28
-24 39 -27 85 -23 94 8 124 60 143 246 15 146 20 173 29 168 4 -3 25 -45 45
-93z m-1912 -685 c30 -24 79 -63 109 -87 30 -24 69 -50 86 -58 30 -12 38 -11
93 12 33 14 72 25 87 25 37 0 89 -33 106 -67 42 -82 73 -345 66 -567 -4 -106
-6 -116 -42 -188 -59 -120 -129 -164 -199 -127 -29 15 -54 81 -68 179 -7 47
-17 93 -22 103 -22 42 -58 7 -127 -122 -46 -85 -98 -141 -131 -141 -100 0
-163 184 -163 480 -1 167 11 254 59 429 36 129 55 171 77 171 8 0 38 -19 69
-42z m2317 -8 c27 -64 76 -269 92 -385 29 -220 -18 -536 -91 -615 -61 -66
-125 -27 -207 127 -41 77 -76 123 -92 123 -19 0 -30 -30 -46 -118 -8 -51 -20
-105 -26 -120 -38 -100 -137 -95 -212 9 -69 96 -89 240 -68 494 29 346 92 434
259 361 30 -13 64 -21 76 -19 23 5 63 33 181 131 42 34 84 62 94 62 13 0 26
-16 40 -50z m-2105 -881 c9 -55 23 -116 31 -135 26 -64 111 -92 175 -59 38 19
38 15 1 -95 -43 -127 -127 -436 -157 -575 -22 -106 -26 -156 -34 -425 -5 -168
-9 -328 -9 -357 -1 -43 -6 -58 -31 -86 -73 -83 -232 -74 -379 22 -41 26 -102
53 -165 72 -145 44 -166 54 -166 82 0 25 52 81 86 91 57 17 137 72 201 139 80
82 95 117 114 270 15 110 -4 411 -57 917 l-7 65 49 -52 c41 -43 56 -53 83 -53
68 0 112 47 196 208 20 39 41 72 45 72 4 0 14 -45 24 -101z m1879 -13 c57
-106 99 -154 144 -162 48 -9 97 18 130 69 13 21 26 37 27 35 2 -1 -12 -154
-31 -338 -50 -498 -47 -717 14 -832 43 -80 127 -154 229 -203 93 -45 142 -90
130 -120 -7 -19 -48 -37 -171 -74 -55 -17 -118 -42 -140 -56 -102 -63 -164
-87 -243 -92 -86 -6 -117 4 -162 52 l-25 27 -7 331 c-4 236 -11 358 -22 422
-31 173 -96 420 -172 657 -19 59 -34 110 -34 113 0 3 13 -1 30 -10 36 -19 81
-19 124 -1 41 17 69 79 85 186 7 41 14 84 18 94 5 20 6 20 20 0 8 -10 33 -54
56 -98z"/>
</g>
</svg>
