<svg xmlns="http://www.w3.org/2000/svg" viewBox="0 0 300 600" fill="none">
  <defs>
    <linearGradient id="muscleGradient" x1="0%" y1="0%" x2="0%" y2="100%">
      <stop offset="0%" style="stop-color:#e0e7ff;stop-opacity:1" />
      <stop offset="100%" style="stop-color:#c7d2fe;stop-opacity:1" />
    </linearGradient>
  </defs>
  
  <style>
    .body-part { 
      fill: url(#muscleGradient);
      stroke: #4f46e5; 
      stroke-width: 2; 
      cursor: pointer; 
      transition: all 0.3s ease;
      opacity: 0.8;
    }
    .body-part:hover { 
      fill: #818cf8;
      stroke: #3730a3; 
      stroke-width: 3;
      opacity: 1;
      filter: drop-shadow(0 4px 8px rgba(79, 70, 229, 0.4));
    }
    .body-neutral {
      fill: #f3f4f6;
      stroke: #9ca3af;
      stroke-width: 1.5;
    }
  </style>
  
  <!-- Tête (arrière) -->
  <ellipse cx="150" cy="45" rx="32" ry="38" class="body-neutral"/>
  
  <!-- Cou (arrière) -->
  <rect x="136" y="80" width="28" height="20" rx="4" class="body-neutral"/>
  
  <!-- Trapèzes -->
  <g onclick="window.location.href='/exercices/complementaires/trapezes'" class="body-part">
    <path d="M 105 95 L 150 108 L 195 95 L 192 125 L 180 135 L 150 140 L 120 135 L 108 125 Z"/>
  </g>
  
  <!-- Épaule gauche arrière (Deltoïde) -->
  <g onclick="window.location.href='/exercices/haut-du-corps/epaules'" class="body-part">
    <path d="M 95 105 Q 85 110 78 120 Q 75 125 78 132 Q 85 138 95 140 Q 102 135 105 128 Q 105 115 100 108 Z"/>
  </g>
  
  <!-- Épaule droite arrière (Deltoïde) -->
  <g onclick="window.location.href='/exercices/haut-du-corps/epaules'" class="body-part">
    <path d="M 205 105 Q 215 110 222 120 Q 225 125 222 132 Q 215 138 205 140 Q 198 135 195 128 Q 195 115 200 108 Z"/>
  </g>
  
  <!-- Haut du dos (Rhomboïdes) -->
  <g onclick="window.location.href='/exercices/haut-du-corps/haut-du-dos'" class="body-part">
    <rect x="115" y="140" width="70" height="38" rx="5"/>
    <!-- Ligne colonne vertébrale -->
    <line x1="150" y1="145" x2="150" y2="175" stroke="#4338ca" stroke-width="1.5" opacity="0.3"/>
  </g>
  
  <!-- Triceps gauche -->
  <g onclick="window.location.href='/exercices/haut-du-corps/triceps'" class="body-part">
    <ellipse cx="78" cy="155" rx="18" ry="35" transform="rotate(-5 78 155)"/>
  </g>
  
  <!-- Triceps droit -->
  <g onclick="window.location.href='/exercices/haut-du-corps/triceps'" class="body-part">
    <ellipse cx="222" cy="155" rx="18" ry="35" transform="rotate(5 222 155)"/>
  </g>
  
  <!-- Avant-bras arrière gauche -->
  <path d="M 68 190 Q 63 195 60 205 Q 58 215 60 225 Q 65 230 72 230 Q 78 225 80 215 Q 80 200 75 193 Z" class="body-neutral"/>
  
  <!-- Avant-bras arrière droit -->
  <path d="M 232 190 Q 237 195 240 205 Q 242 215 240 225 Q 235 230 228 230 Q 222 225 220 215 Q 220 200 225 193 Z" class="body-neutral"/>
  
  <!-- Grands dorsaux (Lats) -->
  <g onclick="window.location.href='/exercices/haut-du-corps/grands-dorsaux'" class="body-part">
    <path d="M 112 178 L 98 190 L 92 210 L 95 235 L 108 248 L 125 255 L 150 258 L 175 255 L 192 248 L 205 235 L 208 210 L 202 190 L 188 178 Z"/>
    <!-- Ligne colonne vertébrale -->
    <line x1="150" y1="180" x2="150" y2="255" stroke="#4338ca" stroke-width="1.5" opacity="0.3"/>
  </g>
  
  <!-- Bas du dos (Lombaires) -->
  <g onclick="window.location.href='/exercices/centre-du-corps/bas-du-dos'" class="body-part">
    <rect x="122" y="258" width="56" height="35" rx="5"/>
    <!-- Ligne colonne vertébrale -->
    <line x1="150" y1="260" x2="150" y2="290" stroke="#4338ca" stroke-width="1.5" opacity="0.3"/>
  </g>
  
  <!-- Fessiers gauche -->
  <g onclick="window.location.href='/exercices/bas-du-corps/fessiers'" class="body-part">
    <ellipse cx="125" cy="310" rx="26" ry="32"/>
  </g>
  
  <!-- Fessiers droit -->
  <g onclick="window.location.href='/exercices/bas-du-corps/fessiers'" class="body-part">
    <ellipse cx="175" cy="310" rx="26" ry="32"/>
  </g>
  
  <!-- Ischio-jambiers gauche -->
  <g onclick="window.location.href='/exercices/bas-du-corps/ischio-jambiers'" class="body-part">
    <path d="M 110 345 Q 102 355 98 375 Q 96 395 102 415 Q 108 430 118 435 Q 128 430 132 415 Q 135 395 132 375 Q 128 355 122 347 Z"/>
  </g>
  
  <!-- Ischio-jambiers droit -->
  <g onclick="window.location.href='/exercices/bas-du-corps/ischio-jambiers'" class="body-part">
    <path d="M 190 345 Q 198 355 202 375 Q 204 395 198 415 Q 192 430 182 435 Q 172 430 168 415 Q 165 395 168 375 Q 172 355 178 347 Z"/>
  </g>
  
  <!-- Genoux arrière -->
  <ellipse cx="115" cy="450" rx="18" ry="14" class="body-neutral"/>
  <ellipse cx="185" cy="450" rx="18" ry="14" class="body-neutral"/>
  
  <!-- Mollets gauche arrière -->
  <g onclick="window.location.href='/exercices/bas-du-corps/mollets'" class="body-part">
    <path d="M 103 465 Q 95 475 92 495 Q 92 520 100 540 Q 108 548 118 548 Q 128 540 132 525 Q 135 500 132 485 Q 128 473 120 467 Z"/>
  </g>
  
  <!-- Mollets droit arrière -->
  <g onclick="window.location.href='/exercices/bas-du-corps/mollets'" class="body-part">
    <path d="M 197 465 Q 205 475 208 495 Q 208 520 200 540 Q 192 548 182 548 Q 172 540 168 525 Q 165 500 168 485 Q 172 473 180 467 Z"/>
  </g>
  
  <!-- Chevilles et pieds arrière -->
  <ellipse cx="110" cy="565" rx="14" ry="12" class="body-neutral"/>
  <ellipse cx="190" cy="565" rx="14" ry="12" class="body-neutral"/>
  <ellipse cx="110" cy="585" rx="22" ry="14" class="body-neutral"/>
  <ellipse cx="190" cy="585" rx="22" ry="14" class="body-neutral"/>
  
  <!-- Ligne colonne vertébrale complète -->
  <line x1="150" y1="100" x2="150" y2="340" stroke="#9ca3af" stroke-width="1" stroke-dasharray="5,5" opacity="0.4"/>
</svg>