<?xml version="1.0" standalone="no"?>
<!DOCTYPE svg PUBLIC "-//W3C//DTD SVG 20010904//EN"
 "http://www.w3.org/TR/2001/REC-SVG-20010904/DTD/svg10.dtd">
<svg version="1.0" xmlns="http://www.w3.org/2000/svg"
 width="600.000000pt" height="1200.000000pt" viewBox="0 0 600.000000 1200.000000"
 preserveAspectRatio="xMidYMid meet">

<g transform="translate(0.000000,1200.000000) scale(0.100000,-0.100000)"
fill="#000000" stroke="none">
<path d="M2925 11393 c-59 -5 -141 -26 -193 -49 -44 -19 -52 -27 -47 -43 4
-14 0 -21 -14 -26 -29 -9 -119 -101 -141 -145 -11 -21 -22 -55 -25 -77 -6 -39
18 -345 30 -374 4 -10 -2 -19 -19 -27 -35 -16 -50 -71 -42 -159 9 -112 45
-183 92 -183 18 0 25 -7 29 -27 4 -16 11 -47 17 -70 6 -25 9 -110 6 -209 l-4
-167 -51 -46 c-38 -34 -91 -64 -205 -114 -84 -37 -178 -86 -208 -109 -47 -36
-74 -47 -185 -75 -217 -56 -320 -120 -412 -258 -40 -61 -118 -264 -169 -439
-39 -135 -32 -119 -100 -211 -57 -77 -139 -228 -204 -375 -77 -175 -89 -196
-171 -286 -219 -238 -267 -325 -489 -879 -51 -126 -103 -251 -116 -276 -12
-25 -48 -120 -79 -210 -31 -90 -79 -211 -107 -269 l-50 -105 -15 -174 c-16
-173 -16 -174 7 -272 13 -54 27 -104 30 -110 13 -20 71 0 89 32 9 16 22 29 28
29 7 0 21 8 31 18 16 16 19 36 20 134 1 90 6 126 22 167 11 28 20 74 20 101 0
74 17 60 19 -15 2 -122 45 -176 116 -149 29 12 44 61 54 180 10 118 21 169 48
210 29 46 34 86 16 142 -16 54 -16 54 11 109 33 68 95 134 214 231 208 167
342 330 463 565 39 76 91 168 116 205 107 157 345 470 388 512 26 25 63 67 82
94 l36 48 42 -128 c52 -158 70 -205 145 -364 33 -69 67 -154 76 -190 20 -75
22 -231 5 -355 -6 -44 -20 -168 -31 -275 -29 -277 -75 -587 -105 -710 -115
-469 -159 -820 -159 -1270 0 -353 28 -601 96 -854 18 -66 20 -94 14 -180 -3
-57 -11 -118 -17 -137 -5 -19 -14 -79 -19 -134 -5 -60 -20 -130 -35 -175 -40
-115 -73 -265 -91 -412 -21 -172 -14 -492 15 -688 29 -194 61 -526 61 -627 0
-47 -7 -138 -16 -202 -14 -103 -21 -125 -59 -191 -100 -177 -135 -226 -220
-304 -93 -85 -145 -162 -145 -214 0 -28 10 -43 62 -93 35 -32 70 -59 78 -59 9
0 26 -7 38 -16 16 -11 34 -14 56 -10 21 4 44 1 62 -9 16 -8 38 -15 49 -15 39
1 104 38 127 74 13 19 35 41 50 47 43 18 96 83 103 126 3 21 8 47 10 58 2 11
33 39 69 62 95 62 100 76 91 249 -6 125 -4 146 11 175 15 29 18 65 19 244 1
188 4 223 28 335 48 221 125 477 170 563 l42 80 -1 136 c-1 75 -9 194 -18 265
-9 72 -19 178 -23 237 l-6 106 65 119 c115 209 135 273 163 529 34 303 76 489
185 810 101 299 139 472 142 652 l1 98 8 -130 c11 -194 54 -378 158 -674 88
-248 133 -454 171 -776 11 -93 26 -197 34 -230 9 -33 54 -135 101 -227 100
-197 98 -183 64 -486 -12 -103 -22 -239 -23 -302 l-1 -116 42 -85 c43 -88 90
-234 142 -444 50 -205 62 -297 60 -487 -1 -148 1 -180 16 -211 15 -32 16 -55
10 -171 -9 -179 -5 -192 91 -257 62 -41 74 -54 74 -77 0 -74 41 -136 113 -173
20 -11 37 -23 37 -28 0 -18 66 -72 102 -83 30 -9 46 -8 80 5 24 9 55 13 70 10
17 -3 37 1 53 11 13 9 30 16 38 16 7 0 41 26 75 58 52 49 62 64 62 92 0 59
-37 116 -140 213 -55 51 -105 104 -112 118 -7 13 -44 75 -81 137 l-69 113 -20
132 c-16 104 -18 159 -14 262 6 126 37 417 71 675 21 155 16 533 -9 675 -18
102 -56 252 -86 339 -11 32 -24 104 -30 160 -5 55 -14 115 -19 133 -5 18 -12
76 -16 130 -6 83 -4 110 13 173 118 426 133 1036 42 1625 -27 172 -44 257 -91
457 -46 196 -77 396 -124 822 -53 475 -49 535 50 742 70 146 138 319 167 422
13 45 25 82 28 82 3 0 14 -14 24 -31 10 -17 53 -68 95 -113 70 -76 206 -254
360 -471 35 -49 93 -147 128 -217 35 -71 91 -169 125 -218 73 -110 220 -267
348 -370 127 -104 183 -163 219 -233 29 -55 30 -60 16 -87 -24 -46 -18 -104
15 -174 26 -54 32 -82 41 -187 11 -134 28 -186 65 -195 61 -15 91 23 109 137
11 69 13 76 14 38 1 -25 10 -72 22 -105 14 -42 21 -91 24 -169 2 -60 4 -115 4
-121 1 -6 13 -17 29 -23 15 -6 34 -24 43 -40 19 -33 76 -52 89 -30 18 28 50
182 50 236 0 32 -7 117 -14 188 -12 118 -17 138 -56 220 -55 119 -76 170 -115
290 -17 55 -55 152 -82 215 -28 63 -92 219 -143 345 -175 437 -250 569 -440
780 -96 105 -114 133 -159 240 -89 209 -179 374 -259 473 -25 31 -43 74 -68
155 -49 167 -121 363 -157 431 -46 87 -138 176 -228 220 -41 20 -133 51 -204
69 -112 29 -138 39 -182 73 -29 23 -118 70 -207 110 -114 50 -169 81 -206 114
l-50 45 -7 160 c-5 132 -3 174 12 238 15 68 20 77 39 77 27 0 60 33 76 75 6
17 14 68 17 115 6 94 -9 144 -48 159 -20 7 -20 15 -19 226 1 245 -7 289 -61
363 -23 31 -51 52 -107 79 -78 37 -172 56 -172 34 0 -8 -9 -7 -28 3 -33 17
-115 32 -157 29z m156 -59 c56 -28 69 -30 69 -9 0 20 15 19 84 -5 106 -36 166
-104 185 -208 5 -26 6 -128 2 -227 l-6 -180 -13 109 c-16 134 -42 205 -88 245
-19 17 -38 31 -42 31 -4 0 -43 -12 -87 -27 -70 -24 -95 -27 -210 -27 -118 0
-136 2 -199 27 -87 34 -115 34 -148 0 -51 -55 -62 -90 -68 -218 -5 -111 -6
-116 -12 -60 -4 33 -10 108 -14 166 -6 94 -4 111 14 152 26 59 109 142 167
168 47 21 57 35 28 42 -10 2 7 11 40 21 136 41 217 41 298 0z m-293 -300 c135
-44 256 -42 414 8 l68 22 26 -25 c41 -37 61 -97 78 -227 20 -155 30 -184 61
-176 53 13 75 -91 45 -215 -13 -54 -33 -78 -76 -90 -24 -6 -29 -14 -40 -71
-16 -77 -48 -127 -116 -180 -62 -50 -104 -72 -181 -96 -49 -15 -66 -16 -112
-7 -78 17 -157 59 -226 121 -68 62 -95 108 -105 179 -6 47 -8 51 -42 59 -54
14 -74 55 -79 167 -5 105 5 131 53 132 l29 0 2 150 c1 110 6 160 18 192 19 50
70 97 94 87 9 -3 49 -17 89 -30z m31 -1033 c31 -16 82 -37 113 -47 50 -15 65
-16 110 -5 76 17 185 74 246 127 l52 46 2 -64 c3 -110 4 -159 6 -334 2 -162 3
-173 26 -206 l24 -35 -107 -6 c-148 -7 -239 -46 -277 -119 l-16 -30 -18 30
c-46 75 -131 112 -281 119 l-107 6 23 33 c24 36 38 120 35 221 -1 32 -1 134
-1 227 l1 168 56 -52 c31 -28 82 -64 113 -79z m-204 -418 c-8 -43 -45 -85 -94
-108 -40 -18 -42 -18 -153 8 -62 15 -140 30 -172 34 l-60 8 39 29 c21 16 107
60 192 97 98 43 171 82 201 107 l47 40 3 -91 c2 -51 0 -106 -3 -124z m975 84
c130 -54 181 -80 231 -117 l39 -28 -68 -6 c-37 -4 -116 -19 -176 -33 l-109
-27 -45 25 c-77 41 -86 62 -91 201 l-3 120 58 -46 c34 -26 105 -64 164 -89z
m-1247 -202 c42 -10 77 -21 77 -24 0 -3 -27 -18 -60 -34 -79 -36 -170 -111
-231 -189 -27 -35 -78 -98 -112 -141 -34 -43 -107 -123 -163 -177 -110 -106
-146 -125 -289 -157 -38 -9 -94 -27 -124 -40 -30 -13 -56 -22 -58 -20 -5 6 61
218 112 356 94 260 204 362 450 419 50 12 99 23 110 26 39 10 211 -2 288 -19z
m1719 -9 c135 -35 201 -69 278 -146 74 -73 107 -130 158 -269 48 -133 115
-352 109 -357 -3 -3 -23 4 -44 14 -21 11 -85 32 -142 46 -57 14 -123 35 -147
47 -84 40 -228 190 -408 423 -63 82 -159 160 -246 200 l-54 25 29 11 c117 44
307 47 467 6z m-1207 -34 c61 -28 93 -57 111 -99 20 -47 20 -526 0 -601 -31
-115 -134 -226 -271 -292 -98 -48 -147 -59 -250 -60 -98 0 -172 18 -267 66
-57 28 -99 62 -188 150 -118 116 -192 164 -254 164 -26 0 -24 3 31 39 78 53
226 207 345 361 130 168 209 226 376 277 66 19 95 23 197 20 99 -2 129 -7 170
-25z m624 12 c189 -47 284 -120 450 -347 65 -89 224 -250 292 -296 58 -39 60
-41 32 -41 -59 0 -143 -54 -248 -160 -104 -106 -171 -153 -276 -192 -54 -19
-83 -23 -184 -23 -108 0 -127 3 -191 28 -177 69 -300 194 -334 339 -5 24 -10
156 -10 293 0 241 1 253 23 295 26 52 57 76 128 101 70 24 227 25 318 3z
m-1661 -742 c47 -34 65 -76 70 -166 10 -168 -30 -269 -157 -401 -37 -38 -106
-122 -153 -185 -123 -167 -218 -247 -318 -267 -80 -16 -157 34 -186 119 -45
138 38 465 176 692 63 104 104 148 171 182 87 44 134 53 254 51 97 -2 114 -5
143 -25z m1239 -102 c15 -19 50 -57 79 -85 l52 -50 -61 3 c-53 3 -68 0 -98
-21 l-37 -25 -21 22 c-18 18 -33 21 -97 21 l-75 0 52 45 c58 50 124 144 135
193 l7 31 19 -49 c11 -28 31 -66 45 -85z m1408 116 c100 -26 172 -72 221 -138
63 -85 106 -166 154 -286 106 -264 120 -472 37 -560 -56 -60 -121 -67 -215
-22 -76 36 -151 108 -250 241 -39 53 -109 138 -156 189 -47 51 -97 116 -110
144 -32 67 -49 169 -44 254 8 143 65 192 223 192 49 0 113 -6 140 -14z m-2486
-152 c35 -42 138 -143 230 -226 217 -196 278 -260 293 -310 12 -41 5 -113 -38
-378 -12 -75 -14 -142 -9 -315 7 -244 1 -296 -44 -390 -53 -111 -133 -165
-248 -165 -29 0 -53 3 -53 8 0 4 14 126 30 272 48 425 43 477 -69 719 -75 161
-150 358 -171 450 -10 44 -10 67 1 125 15 77 19 215 6 259 -4 15 -4 27 0 26 5
0 37 -34 72 -75z m2099 12 c-7 -42 -7 -83 2 -145 24 -177 25 -167 -20 -306
-23 -71 -80 -214 -127 -318 -46 -103 -91 -218 -98 -255 -19 -87 -19 -188 0
-340 14 -109 45 -405 45 -424 0 -5 -24 -8 -54 -8 -135 0 -225 78 -273 235 -15
52 -18 99 -18 345 -1 226 -5 303 -18 370 -28 139 -38 245 -29 288 13 57 47 95
238 266 94 85 213 199 264 255 52 55 95 99 96 98 1 -1 -3 -28 -8 -61z m-1124
-157 c15 -12 26 -30 26 -45 0 -15 6 -24 15 -24 8 0 15 9 15 20 0 12 11 32 25
45 42 42 146 34 285 -23 119 -48 180 -98 180 -148 0 -12 -11 -69 -24 -126 -21
-90 -24 -128 -25 -304 0 -181 -22 -676 -37 -829 -26 -277 -138 -555 -291 -725
-76 -85 -129 -100 -194 -54 -136 94 -283 380 -333 645 -21 114 -45 496 -56
899 -7 281 -11 335 -29 400 -28 102 -27 114 17 158 99 99 356 166 426 111z
m-637 -53 c40 -9 102 -16 139 -16 l67 0 -21 -23 c-40 -42 -42 -70 -18 -192 3
-16 4 -25 1 -19 -3 7 -68 67 -143 135 -75 67 -148 133 -162 146 l-25 24 45
-19 c25 -11 78 -27 117 -36z m1493 31 c-14 -13 -72 -66 -130 -118 -58 -51
-123 -112 -144 -134 -22 -22 -37 -33 -34 -25 3 9 11 41 17 71 13 62 5 98 -31
137 l-21 22 71 0 c84 0 151 13 230 45 72 29 71 29 42 2z m1289 -522 c190 -212
230 -287 451 -840 51 -126 101 -246 111 -266 14 -27 16 -44 10 -67 -22 -74
-70 -112 -144 -112 -50 0 -63 9 -105 70 -35 52 -92 107 -217 211 -213 177
-330 328 -463 596 -28 56 -73 133 -101 170 -27 37 -48 69 -46 71 2 2 14 -3 27
-11 39 -26 136 -49 171 -42 121 26 175 121 164 284 -4 47 -9 100 -13 116 -5
26 -2 24 23 -17 15 -26 75 -100 132 -163z m-4060 124 c-21 -128 6 -248 70
-302 51 -42 104 -52 176 -32 33 9 75 26 93 37 32 20 31 17 -26 -63 -32 -46
-92 -149 -133 -229 -118 -232 -252 -395 -464 -566 -109 -89 -175 -155 -199
-203 -21 -39 -44 -51 -100 -51 -50 0 -95 30 -121 81 -23 43 -19 64 39 204 30
71 89 216 132 320 153 377 213 483 388 680 59 66 117 137 129 157 12 20 23 36
24 34 1 -1 -2 -31 -8 -67z m2467 -404 c14 -128 15 -167 5 -275 -29 -303 56
-512 227 -555 l47 -12 -55 -28 c-161 -81 -286 -207 -368 -370 -16 -33 -51
-127 -77 -210 -72 -230 -114 -341 -154 -401 -37 -57 -91 -93 -133 -88 -13 1
-32 3 -42 3 -11 1 -41 23 -67 50 -54 56 -98 160 -174 410 -51 168 -100 279
-163 363 -62 84 -174 182 -257 225 -41 21 -75 41 -75 44 0 4 15 10 33 13 87
16 169 111 209 240 23 74 25 125 18 406 -3 73 2 169 10 230 l14 105 8 -90 c4
-49 14 -227 23 -395 21 -389 36 -480 110 -675 89 -233 252 -435 350 -435 103
0 259 196 358 450 75 193 91 325 123 1008 4 78 8 141 10 140 1 -2 11 -71 20
-153z m-1261 -894 c87 -41 189 -117 248 -186 85 -99 123 -178 203 -424 82
-252 129 -364 172 -403 21 -20 86 -61 99 -63 1 -1 -2 -73 -7 -160 -11 -194
-36 -302 -144 -626 -81 -243 -115 -373 -145 -550 -33 -188 -51 -268 -82 -353
-50 -138 -123 -216 -201 -216 -79 0 -114 39 -149 164 -29 109 -36 119 -79 112
-123 -20 -117 -20 -144 9 -31 34 -59 116 -91 275 -45 217 -56 326 -62 597 -9
435 31 802 142 1278 40 174 95 502 95 569 0 26 2 27 33 21 17 -3 68 -23 112
-44z m1664 -123 c25 -181 37 -242 95 -498 42 -182 78 -396 103 -605 14 -116
18 -229 18 -500 0 -370 -5 -438 -51 -660 -65 -314 -90 -353 -211 -325 -53 13
-57 13 -73 -8 -10 -11 -25 -51 -34 -89 -32 -125 -74 -173 -151 -173 -125 0
-212 158 -270 495 -38 216 -86 406 -150 595 -73 216 -121 385 -139 496 -19
114 -25 324 -10 324 6 0 30 14 53 30 77 56 121 148 206 430 91 299 179 438
355 557 75 51 182 100 225 102 6 1 21 -74 34 -171z m-3549 19 c32 -27 80 -41
121 -35 21 3 26 -3 37 -42 26 -88 26 -106 -3 -157 -32 -58 -54 -155 -55 -243
-1 -36 -6 -81 -13 -100 -10 -30 -17 -35 -42 -35 -40 0 -56 35 -63 141 -2 46
-9 84 -14 84 -26 0 -51 -26 -73 -76 -13 -30 -34 -68 -46 -85 -33 -47 -57 -185
-46 -270 7 -58 6 -74 -7 -94 -24 -37 -44 -31 -56 18 -6 23 -15 58 -21 77 -12
49 -11 164 5 300 12 103 19 126 63 220 28 58 72 170 98 249 l49 143 17 -35
c10 -19 32 -46 49 -60z m5391 -62 c28 -83 72 -190 97 -240 40 -79 47 -103 58
-200 19 -159 18 -278 -5 -358 -21 -78 -26 -85 -48 -71 -25 16 -32 54 -21 119
12 77 -13 202 -52 265 -16 25 -36 63 -44 85 -21 49 -44 75 -66 75 -15 0 -18
-13 -22 -89 -5 -101 -23 -141 -63 -141 -35 0 -44 25 -55 158 -11 133 -10 132
-52 220 -28 58 -29 66 -18 105 7 23 14 56 17 72 4 28 8 30 38 27 68 -8 157 47
172 106 3 13 7 21 9 20 2 -2 26 -71 55 -153z m-5497 -502 c-11 -32 -19 -90
-23 -173 -5 -104 -9 -125 -22 -128 -26 -5 -34 104 -15 195 13 62 63 169 74
158 2 -2 -4 -26 -14 -52z m5543 -105 c18 -93 10 -201 -15 -196 -15 3 -18 22
-22 133 -3 72 -10 139 -16 150 -6 11 -14 34 -18 50 -6 27 -3 24 25 -17 20 -31
36 -74 46 -120z m-3726 -1978 c16 0 45 6 64 14 46 20 56 9 79 -87 37 -159 126
-220 242 -168 48 22 86 66 132 153 l33 63 -5 -48 c-16 -136 -138 -379 -237
-471 -126 -117 -244 -101 -329 44 -29 50 -52 76 -81 92 l-40 23 6 65 c3 36 12
108 20 160 8 52 17 121 21 153 l6 58 30 -26 c17 -14 42 -25 59 -25z m1949 -23
c0 -34 7 -91 14 -127 8 -36 17 -103 21 -150 l7 -85 -37 -19 c-24 -13 -51 -43
-82 -93 -25 -41 -62 -85 -82 -99 -71 -48 -187 -19 -266 67 -79 86 -179 278
-209 401 -26 106 -20 121 17 43 43 -88 80 -133 132 -156 52 -24 96 -24 144 0
50 26 66 52 98 163 14 51 31 96 36 100 6 4 26 0 45 -8 19 -8 45 -14 59 -14 29
0 83 26 83 41 0 6 5 7 10 4 6 -3 10 -34 10 -68z m-2003 -475 c59 -94 99 -130
159 -142 75 -16 145 5 210 62 l21 19 7 -88 c4 -48 16 -171 27 -273 12 -109 19
-225 17 -281 -3 -89 -6 -102 -44 -175 -51 -99 -121 -339 -181 -624 -11 -53
-16 -135 -17 -275 -1 -168 -4 -208 -20 -250 -16 -46 -17 -60 -6 -165 16 -149
7 -174 -79 -228 -64 -39 -91 -78 -91 -129 0 -43 -33 -88 -82 -112 -25 -12 -51
-33 -59 -47 -37 -69 -119 -96 -171 -55 -16 13 -29 17 -39 10 -22 -13 -55 -11
-69 6 -7 8 -21 15 -31 15 -10 0 -24 8 -31 18 -7 10 -21 21 -30 25 -10 3 -18
13 -18 22 0 8 -7 15 -15 15 -8 0 -19 9 -25 21 -21 38 29 118 136 216 54 50
107 109 123 138 15 28 54 93 85 147 56 95 57 98 77 235 16 106 19 165 14 253
-6 119 -43 470 -70 670 -20 140 -22 445 -5 585 14 123 41 249 81 378 l30 97
30 -15 c16 -9 46 -42 66 -73z m2064 51 c22 -57 68 -231 83 -309 39 -208 43
-498 10 -734 -19 -139 -61 -531 -69 -648 -10 -135 17 -338 55 -417 80 -166
148 -264 259 -373 89 -87 111 -115 121 -150 12 -46 2 -72 -26 -72 -8 0 -14 -5
-14 -11 0 -18 -57 -69 -78 -69 -11 0 -25 -7 -32 -15 -14 -17 -56 -20 -65 -5
-4 7 -19 3 -39 -10 -65 -40 -110 -26 -171 55 -15 19 -32 35 -38 35 -6 0 -26
10 -44 22 -36 25 -63 72 -63 112 0 45 -22 74 -91 120 -89 59 -90 66 -75 262 8
88 6 105 -10 140 -17 34 -19 59 -16 194 4 180 -11 296 -64 512 -56 228 -93
347 -138 438 l-41 84 1 136 c1 74 11 216 23 315 11 99 21 201 21 227 l0 47 51
-34 c70 -47 121 -60 184 -46 59 13 100 48 151 129 58 92 96 114 115 65z"/>
<path d="M2986 8258 c-3 -7 -6 -41 -8 -76 -3 -34 -9 -67 -14 -72 -5 -5 -52
-14 -105 -20 -158 -18 -288 -54 -267 -75 3 -3 50 6 104 20 55 14 139 28 187
32 70 5 91 10 100 24 10 17 12 17 25 -2 10 -15 25 -19 65 -19 45 0 236 -35
305 -56 16 -4 22 -2 22 8 0 16 -133 53 -230 63 -142 15 -138 14 -149 47 -6 17
-11 53 -11 79 0 45 -15 75 -24 47z"/>
<path d="M2825 8044 c-11 -3 -44 -10 -72 -15 -36 -7 -53 -15 -53 -25 0 -10 6
-13 18 -10 39 12 127 26 169 26 54 0 93 -33 93 -80 0 -45 25 -37 36 12 6 30
16 46 34 55 40 20 131 15 223 -13 11 -3 17 0 17 9 0 20 -85 40 -172 41 -52 1
-72 -3 -95 -20 l-28 -21 -27 20 c-26 20 -102 31 -143 21z"/>
<path d="M2980 7757 c0 -44 -5 -80 -12 -89 -22 -27 -79 -39 -215 -45 -184 -8
-171 -26 15 -21 124 2 153 6 188 24 l42 20 38 -20 c33 -18 61 -21 193 -24 190
-5 197 12 9 21 -153 7 -206 20 -219 55 -5 13 -9 52 -9 88 0 50 -3 64 -15 64
-12 0 -15 -15 -15 -73z"/>
<path d="M2741 7581 c-19 -3 -36 -11 -38 -17 -3 -8 33 -10 120 -6 121 4 124 4
141 -19 9 -13 16 -40 16 -61 0 -56 26 -50 32 7 9 76 15 78 155 73 92 -4 123
-2 123 7 0 15 -68 25 -175 25 -69 0 -85 -3 -100 -20 l-18 -20 -22 20 c-18 17
-34 20 -111 19 -49 -1 -104 -4 -123 -8z"/>
<path d="M2985 7348 c-2 -7 -5 -39 -8 -71 -6 -87 -9 -89 -177 -88 -78 1 -147
3 -152 4 -6 1 -12 -3 -15 -9 -5 -14 86 -24 217 -24 81 0 102 3 121 19 23 19
24 19 48 0 19 -16 41 -19 121 -19 119 0 220 10 220 21 0 5 -71 9 -159 9 -129
0 -161 3 -171 15 -7 8 -15 47 -18 85 -4 64 -16 90 -27 58z"/>
<path d="M2702 7128 c3 -9 38 -15 102 -20 159 -11 171 -19 178 -107 5 -54 28
-52 28 2 0 65 21 86 100 97 36 5 91 10 123 10 44 0 57 3 57 15 0 11 -11 15
-38 15 -65 0 -204 -21 -230 -34 -21 -11 -30 -11 -53 1 -16 8 -68 18 -116 23
-122 13 -156 13 -151 -2z"/>
<path d="M2980 6580 c0 -267 2 -320 14 -320 8 0 17 7 20 16 3 9 6 145 6 304 0
159 -3 295 -6 304 -3 9 -12 16 -20 16 -12 0 -14 -53 -14 -320z"/>
</g>
</svg>
