<?xml version="1.0" standalone="no"?>
<!DOCTYPE svg PUBLIC "-//W3C//DTD SVG 20010904//EN"
 "http://www.w3.org/TR/2001/REC-SVG-20010904/DTD/svg10.dtd">
<svg version="1.0" xmlns="http://www.w3.org/2000/svg"
 width="600.000000pt" height="1100.000000pt" viewBox="0 0 600.000000 1100.000000"
 preserveAspectRatio="xMidYMid meet">

<g transform="translate(0.000000,1100.000000) scale(0.100000,-0.100000)"
fill="#000000" stroke="none">
<path d="M2821 10954 c-86 -23 -141 -51 -141 -71 0 -10 -20 -34 -45 -54 -61
-49 -111 -112 -126 -156 -13 -41 -7 -272 11 -377 9 -57 9 -59 -19 -85 -34 -32
-45 -90 -32 -179 13 -84 38 -133 81 -154 50 -26 60 -72 60 -300 l0 -186 -47
-40 c-48 -42 -54 -45 -253 -141 -69 -33 -152 -77 -186 -98 -40 -26 -99 -49
-180 -72 -340 -94 -438 -210 -579 -691 -33 -112 -45 -137 -115 -242 -43 -65
-100 -164 -128 -220 -28 -57 -77 -159 -111 -228 -52 -108 -74 -141 -161 -240
-176 -200 -248 -323 -390 -670 -40 -96 -105 -254 -145 -350 -41 -96 -101 -250
-135 -342 -33 -92 -81 -211 -106 -265 -42 -89 -48 -109 -60 -223 -19 -180 -17
-264 7 -356 24 -95 37 -111 70 -94 13 7 36 24 50 39 15 14 37 33 49 41 19 14
22 28 30 150 5 74 16 157 24 184 9 27 16 67 16 89 0 65 13 33 21 -50 9 -94 30
-127 82 -131 58 -5 69 22 96 246 7 52 22 109 41 152 29 67 30 70 18 139 -11
63 -10 73 8 113 22 49 129 160 287 297 176 154 280 289 422 551 78 143 132
226 258 395 120 160 191 249 252 315 27 30 62 71 76 90 l26 34 48 -144 c26
-80 84 -226 127 -325 124 -280 126 -304 73 -785 -53 -476 -81 -649 -149 -950
-83 -363 -116 -629 -123 -1015 -8 -413 16 -683 82 -946 29 -114 32 -223 11
-350 -8 -46 -19 -123 -26 -171 -6 -49 -24 -132 -41 -185 -79 -257 -108 -523
-90 -830 6 -103 15 -215 21 -248 21 -132 51 -438 57 -570 6 -155 -8 -319 -36
-400 -35 -105 -140 -262 -260 -388 -116 -123 -141 -162 -141 -219 0 -61 156
-181 229 -176 14 1 49 -5 77 -12 65 -17 99 -5 164 56 25 24 66 61 91 84 47 40
57 59 78 135 8 33 23 49 78 90 88 65 94 82 86 241 -4 95 -2 136 10 185 11 44
18 128 21 269 3 155 9 229 25 302 51 241 117 460 178 591 l46 97 -11 178 c-6
97 -19 262 -29 365 -17 182 -17 190 1 220 52 91 147 290 165 346 12 35 28 116
36 180 61 457 76 529 190 886 117 369 153 525 156 675 2 64 2 64 10 -25 19
-202 54 -347 159 -665 90 -271 126 -430 170 -755 16 -127 37 -252 46 -280 9
-27 50 -119 91 -204 99 -202 101 -215 74 -466 -11 -110 -23 -256 -27 -325 l-6
-125 40 -85 c63 -135 129 -353 184 -609 16 -74 21 -144 25 -306 3 -146 9 -224
19 -256 11 -34 14 -85 12 -190 -2 -79 1 -154 5 -167 5 -12 42 -47 82 -77 64
-47 75 -59 80 -92 10 -61 31 -98 75 -134 23 -19 62 -53 87 -77 61 -58 97 -75
142 -68 20 4 61 10 91 15 78 11 117 30 183 92 51 49 57 59 57 95 0 54 -36 107
-151 224 -75 76 -111 123 -175 230 l-81 135 -16 120 c-28 199 -23 308 37 810
34 275 39 409 27 625 -12 197 -28 293 -86 493 -19 68 -42 173 -50 233 -8 60
-19 138 -25 174 -13 84 -13 196 0 240 78 269 117 699 100 1088 -16 363 -50
613 -135 999 -56 250 -85 433 -125 778 -70 611 -70 610 86 960 32 72 78 192
104 267 l46 137 61 -72 c142 -165 362 -452 450 -586 19 -29 70 -118 113 -197
43 -79 99 -175 124 -212 61 -91 183 -224 291 -319 142 -123 258 -244 285 -295
22 -42 23 -51 12 -81 -18 -51 -14 -106 14 -172 13 -33 29 -96 35 -140 24 -180
31 -213 51 -234 14 -16 29 -21 51 -19 26 2 36 11 54 46 11 23 24 66 28 95 l8
52 23 -95 c13 -52 26 -148 30 -212 7 -112 8 -118 33 -134 14 -9 37 -29 51 -44
34 -38 67 -44 84 -17 33 51 49 175 42 317 -8 170 -23 239 -81 369 -25 57 -70
172 -100 255 -29 83 -63 174 -75 201 -12 28 -76 181 -142 340 -187 456 -249
571 -404 754 -43 51 -98 116 -121 145 -24 28 -66 102 -94 166 -89 197 -144
301 -223 420 -70 105 -81 129 -127 273 -63 198 -130 365 -168 420 -39 56 -105
118 -165 156 -46 28 -138 62 -301 110 -39 11 -100 39 -135 62 -35 23 -136 76
-225 119 -102 50 -176 93 -203 119 l-44 40 4 203 c4 204 15 268 43 268 27 0
75 52 85 92 17 60 17 188 1 225 -7 18 -21 35 -31 38 -15 5 -18 28 -23 238 -6
250 -14 300 -61 362 -47 61 -213 135 -271 121 -13 -3 -50 1 -81 9 -72 19 -152
18 -223 -1z m255 -40 c60 -24 66 -25 78 -9 11 15 16 15 71 -4 84 -30 133 -67
169 -131 29 -52 31 -61 35 -184 1 -71 0 -158 -5 -195 l-7 -66 -13 82 c-16 112
-39 173 -78 216 -39 43 -52 44 -132 16 -45 -17 -90 -23 -192 -27 -122 -4 -139
-2 -216 22 -97 30 -123 32 -153 11 -46 -32 -65 -81 -77 -203 l-13 -117 -7 85
c-15 167 -12 231 11 276 28 53 101 126 156 156 26 15 41 31 41 41 -1 13 13 21
55 33 31 8 61 17 66 19 6 2 41 4 78 4 52 1 85 -5 133 -25z m-315 -301 c67 -24
87 -27 214 -27 122 0 151 3 223 26 l83 25 29 -35 c32 -39 53 -109 75 -253 19
-128 27 -147 62 -151 41 -5 55 -39 50 -129 -4 -95 -28 -148 -79 -171 -32 -15
-38 -24 -47 -68 -6 -28 -18 -64 -26 -80 -61 -117 -259 -232 -374 -216 -73 10
-185 69 -251 132 -64 61 -84 95 -100 171 -10 46 -15 52 -51 66 -52 21 -69 61
-71 176 -3 99 7 121 52 121 l27 0 5 163 c4 141 7 167 26 204 19 37 55 73 72
73 4 0 40 -12 81 -27z m-8 -1012 c47 -34 168 -89 215 -97 79 -12 230 51 335
141 l42 36 5 -288 c5 -279 6 -289 28 -320 12 -17 22 -34 22 -37 0 -3 -24 -6
-52 -6 -157 -1 -280 -43 -325 -111 l-25 -39 -30 41 c-49 68 -170 108 -325 109
-29 0 -53 2 -53 5 0 3 7 16 15 29 31 48 36 94 35 360 l0 268 41 -33 c22 -19
55 -45 72 -58z m-143 -365 c0 -101 -2 -117 -23 -147 -12 -19 -42 -45 -66 -58
l-44 -24 -121 27 c-67 14 -145 29 -174 33 -52 6 -52 6 -35 26 10 11 70 45 133
74 218 103 237 113 281 147 24 19 45 35 47 35 1 1 2 -50 2 -113z m809 86 c52
-41 113 -73 226 -122 55 -24 129 -62 165 -84 l64 -41 -84 -11 c-47 -6 -127
-22 -177 -34 -81 -20 -97 -21 -125 -9 -58 24 -96 66 -102 112 -8 67 -14 217
-9 217 3 0 22 -13 42 -28z m-1122 -303 c34 -5 75 -14 90 -20 28 -10 27 -11
-50 -51 -101 -53 -157 -105 -280 -258 -133 -164 -288 -320 -353 -353 -28 -14
-88 -35 -134 -47 -45 -11 -111 -32 -146 -45 -52 -20 -64 -21 -64 -9 0 29 123
381 161 460 44 93 119 182 194 229 53 34 131 62 260 95 84 21 184 21 322 -1z
m1749 -8 c122 -25 230 -76 300 -143 72 -67 112 -129 157 -243 37 -94 127 -370
127 -391 0 -8 -27 -3 -87 16 -49 16 -126 41 -172 55 -49 15 -104 40 -132 60
-63 47 -182 174 -302 323 -119 147 -188 210 -284 260 -40 20 -69 40 -65 44 4
4 34 14 67 22 88 21 281 20 391 -3z m-1266 -21 c78 -13 146 -52 175 -100 19
-33 20 -51 20 -326 l0 -290 -38 -76 c-84 -172 -288 -291 -497 -291 -179 -1
-290 50 -463 212 -127 120 -170 150 -234 166 l-43 11 61 44 c76 55 212 198
334 350 111 139 167 191 259 237 130 65 274 87 426 63z m688 -5 c105 -21 224
-80 295 -145 31 -29 99 -104 149 -168 115 -145 211 -247 306 -323 59 -48 69
-59 50 -59 -46 0 -130 -53 -226 -144 -131 -123 -166 -149 -258 -193 -76 -36
-84 -38 -200 -41 -140 -5 -197 8 -306 65 -84 44 -187 144 -223 216 -38 79 -47
160 -43 419 3 224 4 235 27 275 26 45 89 86 157 102 62 14 188 12 272 -4z
m-1673 -754 c57 -32 70 -71 70 -212 0 -124 0 -126 -37 -200 -20 -40 -65 -105
-99 -144 -34 -38 -113 -133 -175 -211 -151 -188 -210 -238 -315 -264 -41 -10
-53 -9 -92 8 -92 41 -127 132 -108 281 21 167 76 332 165 494 71 131 118 183
206 225 68 33 85 37 180 42 126 7 166 3 205 -19z m1262 -99 c13 -18 49 -57 78
-87 l53 -55 -62 2 c-50 2 -70 -3 -99 -21 l-37 -23 -26 21 c-21 17 -41 21 -94
21 l-67 0 62 65 c66 68 109 132 121 180 7 28 7 28 26 -21 11 -27 31 -64 45
-82z m1474 99 c86 -33 145 -77 193 -145 125 -175 236 -486 236 -660 0 -182
-116 -272 -265 -207 -68 31 -140 96 -232 212 -48 61 -131 163 -185 226 -106
125 -130 168 -148 261 -16 78 -9 217 13 258 18 35 57 64 102 75 57 15 226 3
286 -20z m-2560 -148 c35 -40 141 -143 234 -229 197 -182 258 -246 281 -293
20 -41 16 -109 -17 -307 -18 -109 -21 -174 -23 -414 -1 -267 -2 -289 -23 -343
-51 -136 -134 -206 -253 -215 -84 -6 -79 -37 -44 274 31 273 34 443 11 531 -9
34 -44 124 -78 200 -78 175 -142 343 -165 431 -16 63 -16 80 -4 199 7 72 10
156 6 188 -3 31 -2 55 2 53 5 -1 38 -35 73 -75z m2125 -25 c0 -57 3 -148 8
-203 8 -99 8 -101 -29 -210 -20 -60 -70 -188 -112 -284 -119 -278 -126 -305
-126 -446 0 -66 12 -222 27 -347 14 -125 26 -242 26 -259 l0 -32 -67 5 c-123
9 -194 67 -248 203 l-28 70 -7 330 c-6 249 -12 350 -24 410 -10 44 -18 121
-19 171 -2 84 0 93 26 131 16 23 99 105 185 184 86 78 209 196 272 261 63 64
116 118 116 118 1 0 1 -46 0 -102z m-1141 -123 c14 -13 25 -31 25 -39 0 -30
20 -26 34 8 20 49 46 59 135 54 128 -8 312 -92 346 -158 15 -29 14 -39 -9
-158 -21 -108 -26 -166 -31 -392 -13 -623 -38 -886 -102 -1078 -80 -242 -240
-479 -336 -497 -98 -19 -244 153 -344 405 -96 243 -112 381 -143 1248 -6 185
-14 291 -25 332 -26 101 -24 125 19 169 67 69 226 129 344 130 54 1 66 -2 87
-24z m-716 -27 c29 -10 102 -24 162 -30 l109 -12 -20 -21 c-27 -29 -34 -77
-22 -145 6 -30 9 -56 8 -57 -1 -2 -301 268 -321 289 -7 8 -4 9 10 3 11 -4 44
-17 74 -27z m1586 13 c-11 -10 -76 -69 -145 -131 -69 -62 -133 -122 -144 -132
-24 -26 -28 -20 -15 27 16 57 6 132 -20 158 l-21 22 102 11 c57 7 134 23 173
37 86 31 95 32 70 8z m1260 -474 c44 -53 108 -131 141 -173 104 -128 147 -215
349 -704 23 -58 64 -155 89 -215 51 -122 55 -155 26 -202 -25 -42 -68 -63
-125 -63 -50 0 -52 1 -144 110 -24 28 -112 111 -195 184 -144 127 -266 260
-330 364 -15 24 -65 114 -112 199 -46 85 -102 180 -124 211 -22 30 -38 57 -36
59 2 3 24 -6 48 -18 65 -35 170 -33 225 3 26 17 49 44 64 75 21 42 24 62 23
153 0 58 -4 119 -7 135 l-7 30 18 -25 c9 -14 53 -69 97 -123z m-4076 62 c-20
-119 9 -237 71 -293 22 -20 51 -38 66 -42 40 -10 127 2 174 25 24 12 45 20 46
18 2 -1 -23 -43 -55 -92 -32 -50 -79 -130 -106 -180 -135 -255 -240 -390 -427
-550 -145 -124 -215 -193 -251 -245 -39 -57 -43 -60 -97 -60 -82 0 -156 70
-146 137 8 57 248 639 328 798 68 134 121 211 245 357 58 68 116 140 130 161
14 20 27 36 29 34 2 -2 -1 -32 -7 -68z m2509 -579 c-5 -336 4 -415 57 -520 32
-63 103 -126 157 -140 23 -6 48 -12 53 -14 6 -2 -12 -14 -40 -29 -85 -43 -191
-123 -247 -187 -91 -103 -138 -198 -224 -452 -93 -280 -139 -377 -196 -419
-70 -50 -146 -35 -206 42 -39 49 -76 139 -149 358 -82 250 -127 346 -208 444
-57 69 -162 153 -252 203 -29 16 -53 32 -53 35 0 4 15 10 34 13 80 15 164 111
207 237 20 59 22 86 25 359 1 162 7 315 12 340 l8 45 7 -75 c4 -41 14 -196 22
-345 23 -410 36 -510 87 -665 28 -87 96 -232 142 -305 72 -111 188 -215 241
-215 22 0 84 34 122 67 89 79 198 266 258 447 54 161 73 306 95 716 6 107 13
238 17 290 l7 95 13 -90 c8 -51 13 -153 11 -235z m-1301 -725 c160 -75 289
-194 361 -333 22 -42 75 -178 117 -302 42 -124 94 -262 116 -307 35 -73 45
-85 98 -120 l59 -38 -4 -85 c-13 -246 -32 -339 -143 -685 -98 -305 -121 -396
-161 -612 -48 -262 -76 -354 -141 -455 -46 -70 -90 -93 -177 -89 -42 2 -79 55
-112 159 -17 54 -37 102 -43 108 -9 9 -32 9 -87 2 -73 -10 -75 -10 -96 15 -30
36 -57 111 -88 249 -43 193 -58 312 -64 537 -16 505 18 854 132 1372 32 145
86 451 102 577 6 52 7 53 33 47 14 -3 58 -21 98 -40z m1677 28 c3 -10 21 -112
40 -228 19 -115 55 -302 80 -415 44 -198 80 -405 108 -615 9 -69 13 -231 13
-530 0 -409 -1 -436 -24 -559 -37 -202 -77 -355 -106 -397 -30 -46 -60 -56
-128 -40 -65 15 -80 2 -108 -93 -41 -139 -75 -176 -160 -176 -125 0 -198 139
-274 520 -51 257 -82 379 -169 648 -102 316 -127 430 -133 613 -6 138 -5 147
13 153 39 12 115 100 148 170 19 39 60 152 91 251 70 219 112 317 170 406 81
122 218 230 360 285 73 28 72 28 79 7z m-3597 -113 c29 -35 81 -60 126 -60 44
0 52 -11 68 -86 12 -57 11 -63 -14 -118 -31 -66 -57 -184 -57 -253 0 -54 -16
-119 -31 -129 -19 -11 -56 5 -67 32 -7 14 -15 59 -19 99 -7 90 -13 101 -41 84
-29 -18 -117 -191 -131 -257 -6 -29 -11 -99 -11 -156 0 -88 -3 -105 -19 -120
-24 -22 -34 -9 -56 74 -14 54 -16 91 -11 215 8 191 13 216 84 382 33 76 74
183 92 238 40 121 41 123 54 101 6 -10 21 -31 33 -46z m5493 -80 c23 -69 65
-174 93 -234 63 -138 81 -241 74 -436 -4 -131 -25 -230 -48 -230 -5 0 -16 11
-25 25 -13 20 -15 39 -10 98 10 103 -11 193 -74 316 -29 55 -58 105 -66 112
-29 24 -41 3 -46 -79 -7 -98 -23 -136 -60 -140 -38 -4 -45 14 -61 164 -12 104
-21 144 -47 204 l-33 74 18 73 17 73 47 0 c59 0 131 43 151 89 7 18 16 28 20
24 4 -4 26 -64 50 -133z m-5576 -517 c-8 -27 -19 -104 -24 -173 -5 -69 -10
-126 -10 -127 0 -2 -6 -3 -14 -3 -34 0 -31 159 4 253 18 46 46 97 54 97 2 0
-2 -21 -10 -47z m5610 -59 c32 -102 33 -244 2 -244 -16 0 -26 51 -26 140 -1
60 -6 96 -24 175 l-8 30 20 -24 c11 -13 27 -48 36 -77z m-3741 -2049 c94 15
88 19 118 -78 44 -142 88 -190 178 -190 68 0 119 38 178 132 42 66 53 79 53
59 0 -79 -100 -303 -185 -416 -68 -90 -132 -134 -201 -140 -75 -6 -127 26
-184 113 -24 37 -62 79 -86 96 -38 26 -42 33 -38 62 2 17 13 109 25 202 11 94
22 176 25 182 2 9 13 7 39 -8 29 -17 44 -20 78 -14z m1951 -22 c4 -32 13 -107
21 -168 30 -223 30 -200 -9 -224 -19 -12 -60 -58 -91 -101 -64 -93 -89 -111
-154 -118 -87 -8 -177 49 -252 160 -84 123 -178 353 -167 406 3 11 14 -2 32
-38 60 -116 120 -163 203 -162 92 2 129 42 173 184 l31 100 37 -7 c64 -14 120
-11 139 8 27 26 31 21 37 -40z m-2075 -441 c20 -21 55 -64 79 -95 49 -66 89
-94 149 -103 52 -8 123 15 174 56 l37 29 6 -77 c4 -42 14 -144 23 -227 9 -82
17 -217 17 -300 l1 -150 -43 -88 c-46 -96 -92 -243 -148 -472 -37 -156 -53
-300 -54 -515 0 -58 -7 -129 -15 -160 -11 -42 -13 -87 -8 -193 l6 -138 -43
-37 c-102 -87 -130 -119 -130 -147 0 -45 -30 -94 -79 -127 -25 -18 -66 -53
-92 -80 -39 -42 -50 -48 -85 -48 -22 0 -50 7 -62 16 -15 10 -32 13 -52 9 -41
-9 -104 23 -170 86 -45 43 -51 53 -45 76 10 41 39 78 154 198 89 92 118 131
176 235 94 168 108 230 108 475 0 138 -8 244 -32 455 -46 390 -50 447 -50 610
-1 159 11 292 35 415 23 119 85 335 97 335 5 0 26 -17 46 -38z m2138 -2 c23
-49 84 -301 98 -407 19 -143 19 -454 0 -618 -9 -72 -27 -229 -42 -350 -32
-272 -36 -528 -10 -645 35 -156 140 -330 296 -493 95 -99 131 -149 131 -182 0
-25 -89 -109 -142 -134 -34 -16 -57 -21 -78 -16 -20 4 -37 1 -52 -9 -44 -31
-84 -21 -146 37 -31 30 -74 64 -95 76 -42 25 -62 57 -73 116 -10 55 -27 77
-91 122 -82 56 -87 71 -79 233 6 110 4 144 -8 176 -10 28 -16 97 -19 249 -5
175 -10 230 -31 329 -59 272 -129 502 -189 621 l-30 60 6 135 c6 118 46 570
52 578 1 1 28 -13 60 -33 67 -40 109 -50 163 -40 52 9 92 36 127 85 108 149
126 163 152 110z"/>
<path d="M2986 7785 c-3 -9 -6 -31 -6 -50 0 -54 -11 -94 -29 -99 -9 -3 -65
-12 -126 -21 -158 -23 -252 -51 -233 -70 2 -2 43 5 91 16 48 10 132 25 187 33
56 8 107 19 114 25 10 8 16 8 25 -2 7 -9 44 -17 94 -21 45 -4 129 -17 187 -30
58 -14 107 -22 109 -20 19 18 -90 50 -239 69 -63 9 -121 21 -128 29 -7 7 -16
39 -19 72 -7 69 -17 95 -27 69z"/>
<path d="M2771 7562 c-36 -9 -67 -23 -69 -31 -4 -11 2 -12 24 -6 60 15 150 24
182 19 37 -7 72 -46 72 -81 0 -33 21 -25 33 13 14 42 35 63 73 70 30 5 137 -7
188 -22 12 -4 17 -2 14 7 -13 38 -209 53 -263 21 -29 -18 -31 -18 -60 -1 -45
27 -120 31 -194 11z"/>
<path d="M2980 7288 c0 -117 -22 -130 -235 -143 -160 -10 -126 -27 40 -20 94
3 137 9 170 24 43 19 44 19 83 0 31 -15 69 -21 179 -25 175 -7 205 10 35 20
-64 4 -141 14 -170 22 -62 17 -72 35 -72 125 0 46 -3 59 -15 59 -12 0 -15 -14
-15 -62z"/>
<path d="M2740 7103 c-14 -2 -29 -9 -34 -14 -6 -5 39 -9 116 -9 143 0 147 -2
156 -75 6 -57 24 -54 34 6 4 24 15 50 25 57 11 8 56 12 135 12 65 0 118 4 118
9 0 14 -55 21 -155 21 -77 0 -97 -3 -116 -19 -23 -18 -25 -18 -43 -3 -14 13
-40 17 -115 19 -53 0 -107 -1 -121 -4z"/>
<path d="M2987 6870 c-3 -8 -8 -42 -11 -75 -3 -40 -11 -64 -22 -72 -13 -9 -63
-13 -171 -13 -86 0 -153 -4 -153 -9 0 -15 50 -22 181 -23 104 -1 130 1 155 16
29 17 32 18 57 2 21 -14 49 -17 154 -17 70 1 142 5 158 10 l30 9 -35 1 c-160
5 -287 15 -297 23 -6 5 -15 35 -18 66 -7 68 -20 105 -28 82z"/>
<path d="M2704 6649 c-8 -13 8 -17 121 -29 107 -11 142 -26 150 -65 3 -14 7
-36 10 -50 8 -39 25 -29 25 14 0 71 49 100 166 101 89 0 146 19 97 32 -26 7
-170 -10 -226 -26 -39 -12 -55 -12 -91 -1 -23 7 -74 16 -112 20 -38 4 -84 8
-101 10 -18 2 -35 -1 -39 -6z"/>
<path d="M2986 6394 c-10 -26 -7 -608 4 -624 5 -8 13 -11 17 -6 9 9 17 589 8
624 -6 26 -20 29 -29 6z"/>
</g>
</svg>
