<?xml version="1.0" standalone="no"?>
<!DOCTYPE svg PUBLIC "-//W3C//DTD SVG 20010904//EN"
 "http://www.w3.org/TR/2001/REC-SVG-20010904/DTD/svg10.dtd">
<svg version="1.0" xmlns="http://www.w3.org/2000/svg"
 width="600.000000pt" height="1200.000000pt" viewBox="0 0 600.000000 1200.000000"
 preserveAspectRatio="xMidYMid meet">

<g transform="translate(0.000000,1200.000000) scale(0.100000,-0.100000)"
fill="#000000" stroke="none">
<path d="M2890 11516 c-217 -49 -337 -145 -401 -322 -29 -78 -30 -237 -4 -343
11 -46 14 -76 8 -80 -22 -14 -33 -54 -33 -124 0 -127 38 -210 100 -219 21 -2
26 -11 35 -53 5 -27 9 -139 10 -249 l0 -198 -51 -47 c-41 -37 -83 -60 -211
-114 -88 -38 -185 -83 -214 -101 -38 -23 -76 -37 -127 -45 -194 -31 -400 -154
-513 -308 -73 -99 -136 -244 -164 -382 -5 -22 -31 -62 -71 -107 -94 -108 -148
-196 -198 -321 -25 -62 -63 -145 -85 -185 -21 -40 -50 -106 -62 -147 -21 -66
-32 -83 -109 -164 -267 -283 -347 -431 -539 -1002 -50 -148 -103 -294 -118
-324 -23 -45 -29 -74 -34 -165 -6 -90 -16 -141 -53 -265 -27 -91 -46 -175 -46
-203 0 -48 50 -271 69 -307 9 -15 96 -91 157 -136 16 -11 40 16 49 57 4 15 12
32 20 38 8 6 17 25 20 41 6 28 3 38 -37 111 -12 23 -12 38 3 127 16 95 30 131
50 131 5 0 9 -12 9 -26 0 -95 54 -170 110 -154 16 5 34 11 40 15 13 8 13 89
-1 156 -6 30 -12 106 -13 170 -1 108 -3 118 -28 157 -44 66 -35 108 52 238 57
83 94 127 235 279 151 162 199 229 335 463 94 163 204 320 329 470 139 167
178 218 290 386 l106 159 8 -34 c35 -138 99 -310 155 -419 40 -77 74 -161 90
-220 24 -90 26 -108 26 -355 1 -280 -17 -459 -70 -719 -13 -65 -24 -147 -24
-181 0 -38 -10 -96 -25 -146 -82 -273 -148 -658 -175 -1019 -13 -174 -13 -534
0 -675 12 -130 44 -347 67 -462 16 -79 16 -90 -5 -280 -12 -109 -26 -243 -32
-298 -6 -65 -24 -146 -50 -230 -131 -421 -138 -540 -71 -1200 59 -591 64 -672
51 -763 -23 -159 -31 -185 -72 -239 -44 -58 -119 -123 -141 -123 -8 0 -26 -9
-40 -20 -14 -11 -31 -20 -39 -20 -44 0 -118 -80 -118 -127 0 -30 42 -60 109
-79 166 -46 195 -57 242 -94 70 -55 143 -80 237 -80 175 1 229 75 212 289 -5
49 -4 122 1 163 4 40 8 130 9 199 0 146 12 218 82 494 58 231 131 459 182 572
19 44 41 104 47 134 14 65 6 329 -16 524 -33 300 -39 391 -27 431 6 22 37 73
68 114 89 117 118 198 149 415 33 223 79 455 126 630 149 549 183 709 215
1020 9 88 17 161 19 163 1 2 6 -32 10 -75 29 -325 69 -544 155 -858 118 -427
144 -547 190 -859 35 -240 67 -328 163 -454 34 -43 59 -88 63 -110 4 -21 -2
-124 -14 -242 -38 -350 -44 -450 -40 -585 4 -124 6 -134 42 -220 79 -185 167
-473 233 -760 30 -134 35 -175 44 -385 6 -129 9 -276 6 -327 -12 -209 51 -281
235 -271 94 5 172 35 223 85 24 23 58 38 159 66 130 37 172 56 183 83 16 41
-37 116 -95 135 -20 6 -48 20 -61 30 -13 11 -32 19 -43 19 -24 0 -155 131
-172 173 -8 18 -21 85 -31 149 -20 137 -19 165 46 818 60 598 55 745 -32 1045
-75 260 -90 320 -95 395 -3 41 -15 162 -26 268 -19 165 -20 203 -10 260 63
353 82 538 82 812 0 410 -64 926 -156 1257 -52 185 -53 192 -54 255 0 31 -11
113 -25 183 -53 266 -69 430 -70 710 0 325 6 359 110 570 63 129 103 237 164
444 6 21 12 15 61 -60 107 -165 221 -321 290 -400 122 -138 262 -336 387 -545
143 -238 169 -276 299 -417 158 -172 272 -316 309 -390 35 -69 44 -120 25
-132 -36 -22 -61 -123 -50 -203 4 -34 2 -80 -5 -121 -7 -36 -15 -90 -18 -118
-5 -46 -3 -55 16 -68 32 -22 80 -19 104 8 23 24 43 85 43 130 0 29 11 35 28
15 11 -14 42 -169 42 -212 0 -15 -11 -44 -25 -64 -30 -44 -32 -81 -5 -115 11
-14 20 -30 20 -37 0 -18 30 -70 40 -70 13 0 149 114 167 139 18 27 73 256 73
307 0 23 -21 113 -47 201 -37 127 -47 180 -53 268 -5 89 -12 119 -32 160 -14
28 -65 167 -113 310 -194 579 -281 742 -536 1011 -87 91 -99 109 -118 170 -12
38 -47 119 -76 179 -30 61 -70 147 -89 193 -46 112 -87 176 -173 276 -63 74
-74 92 -87 150 -63 271 -214 470 -441 582 -87 43 -220 84 -274 84 -14 0 -50
16 -79 34 -30 19 -125 64 -212 101 -144 61 -239 118 -262 159 -3 6 -7 94 -9
196 -2 172 0 196 27 298 2 6 14 12 27 12 13 0 33 10 44 23 36 40 48 87 48 188
0 82 -3 100 -19 118 -18 20 -18 26 -7 70 25 98 30 166 16 243 -13 78 -66 196
-116 259 -24 31 -26 36 -12 45 15 9 14 13 -1 37 -26 39 -102 85 -153 93 -25 4
-79 4 -119 1 -56 -4 -76 -2 -85 9 -14 17 -63 17 -139 0z m48 -37 c-21 -11 -38
-24 -38 -29 0 -13 32 -13 66 0 15 6 71 18 125 26 89 14 103 14 153 0 31 -9 68
-28 83 -41 l28 -26 -37 7 c-21 3 -38 5 -38 2 0 -2 27 -32 60 -66 80 -85 138
-202 152 -308 10 -72 9 -88 -16 -187 -15 -60 -33 -159 -39 -220 l-12 -113 -80
-123 c-43 -68 -84 -125 -90 -127 -6 -3 -51 14 -100 37 -79 37 -98 42 -161 42
-64 0 -82 -4 -163 -43 -74 -35 -93 -41 -105 -31 -13 11 -121 176 -153 235 -6
11 -16 73 -22 136 -6 63 -20 144 -31 180 -44 139 -36 300 23 420 28 58 124
153 185 184 74 37 161 62 222 64 22 1 20 -1 -12 -19z m-413 -854 c5 -69 13
-110 26 -132 13 -25 15 -33 5 -33 -48 0 -90 161 -66 251 17 61 27 36 35 -86z
m978 27 c-2 -109 -32 -192 -69 -192 -10 0 -9 9 5 38 12 24 21 69 25 130 3 52
9 98 12 104 15 23 28 -16 27 -80z m-782 -405 c12 -7 41 2 110 34 83 39 102 44
164 44 62 -1 81 -6 163 -45 71 -33 98 -41 110 -34 10 6 37 39 60 75 24 35 40
53 35 39 -4 -14 -8 -121 -8 -238 l0 -212 45 -41 45 -40 -48 6 c-64 8 -735 8
-806 -1 l-56 -6 47 37 46 36 7 82 c8 96 2 341 -10 377 -4 14 12 -4 36 -39 24
-36 51 -69 60 -74z m715 -446 c39 -6 80 -14 90 -17 60 -22 280 -118 310 -136
l36 -21 -53 -17 c-87 -27 -133 -56 -218 -135 -95 -88 -88 -87 -308 -54 -186
27 -410 27 -596 0 -218 -33 -214 -34 -302 49 -87 80 -143 115 -222 140 l-55
17 43 25 c64 38 281 127 339 139 28 6 89 14 138 18 129 11 716 5 798 -8z
m-1281 -217 c65 -16 120 -46 175 -95 l35 -31 -50 -44 c-27 -25 -85 -73 -129
-107 -43 -34 -127 -100 -185 -146 -58 -46 -123 -94 -143 -107 -63 -40 -180
-73 -312 -89 -69 -8 -140 -22 -157 -30 -17 -9 -33 -15 -35 -13 -9 10 41 161
81 243 55 113 102 174 190 248 89 75 174 122 283 158 99 32 162 36 247 13z
m1927 -14 c212 -68 379 -211 473 -405 36 -75 89 -233 80 -243 -1 -1 -19 5 -41
14 -21 9 -92 23 -157 30 -127 15 -249 50 -310 90 -57 37 -395 305 -452 358
l-50 46 35 31 c123 107 256 133 422 79z m-1607 -306 c121 -237 249 -530 316
-724 28 -82 33 -112 37 -217 7 -188 -25 -293 -190 -632 -109 -224 -118 -259
-118 -484 0 -224 -11 -247 -145 -308 -99 -44 -198 -111 -273 -183 -55 -51 -64
-57 -59 -35 35 142 77 541 77 718 -1 250 -27 384 -108 540 -69 136 -106 227
-148 375 -30 104 -34 128 -28 190 4 54 0 102 -19 201 -38 196 -39 202 -28 242
9 31 22 45 68 74 59 36 390 294 473 368 25 22 49 39 54 37 6 -1 46 -74 91
-162z m1161 145 c31 -35 421 -341 487 -383 34 -21 65 -44 69 -50 15 -22 7
-137 -17 -260 -18 -89 -24 -153 -23 -223 1 -93 -1 -105 -49 -248 -28 -82 -82
-215 -121 -295 -98 -200 -107 -247 -107 -555 1 -168 6 -283 19 -385 18 -147
42 -299 53 -335 3 -12 -19 3 -58 41 -81 76 -129 109 -254 172 -161 81 -169 95
-167 312 2 231 -3 252 -117 490 -231 479 -245 603 -110 966 80 215 282 653
346 751 19 28 25 29 49 2z m-331 -21 c76 -12 151 -18 182 -15 l51 5 -85 -170
c-126 -253 -219 -472 -306 -719 -83 -232 -112 -289 -151 -289 -43 0 -62 35
-139 250 -103 290 -200 517 -338 792 l-68 136 52 -5 c31 -3 97 2 158 12 228
39 415 40 644 3z m-1543 -472 c-2 -39 5 -105 17 -168 33 -158 37 -237 16 -278
-27 -53 -158 -252 -240 -365 -116 -159 -284 -305 -352 -305 -30 0 -40 23 -52
120 -17 132 -40 150 -156 115 -27 -9 -55 -13 -62 -11 -33 13 4 163 72 298 26
50 58 120 72 157 57 151 173 322 270 396 55 42 87 51 218 65 55 5 120 16 145
24 25 8 47 14 50 15 3 1 4 -28 2 -63z m2553 39 c33 -8 98 -17 145 -21 47 -3
100 -12 117 -20 109 -44 281 -266 333 -429 7 -22 35 -85 63 -140 79 -158 118
-307 84 -321 -7 -2 -35 2 -62 11 -116 35 -138 18 -159 -123 -8 -49 -17 -95
-20 -101 -28 -44 -183 55 -307 195 -28 33 -113 152 -190 267 -162 242 -157
220 -113 452 15 82 24 161 22 196 -2 49 -1 58 12 53 8 -3 42 -12 75 -19z
m-1145 -914 c39 -114 87 -225 174 -399 86 -172 96 -214 96 -432 0 -152 3 -181
20 -219 l20 -43 -69 7 c-188 19 -342 -72 -401 -237 -10 -29 -19 -46 -19 -38
-2 32 -60 137 -96 174 -72 73 -196 112 -318 100 l-69 -6 18 33 c16 29 19 69
25 249 7 246 -1 217 122 470 138 283 186 433 187 575 l1 70 33 -71 c50 -107
98 -130 154 -74 17 16 41 57 54 90 l23 61 7 -108 c5 -82 14 -130 38 -202z
m-2212 -38 c26 4 68 9 93 13 31 4 49 2 53 -5 4 -6 14 -55 21 -107 19 -139 50
-162 150 -108 l48 25 -26 -34 c-81 -106 -147 -207 -250 -379 -132 -222 -187
-297 -337 -458 -127 -136 -216 -247 -259 -323 -26 -45 -40 -59 -76 -72 -61
-24 -110 -13 -152 32 -18 19 -36 45 -39 58 -6 24 92 334 198 625 112 308 229
500 432 707 l70 73 14 -26 c13 -24 18 -26 60 -21z m4307 -124 c198 -231 271
-384 462 -959 l85 -254 -21 -43 c-24 -49 -72 -83 -116 -83 -52 1 -112 35 -133
77 -35 68 -119 175 -250 317 -152 165 -215 248 -301 393 -117 197 -194 317
-251 393 -77 104 -77 103 -24 75 99 -52 130 -29 148 107 6 51 16 99 20 107 6
10 21 12 55 7 143 -20 139 -21 152 8 l13 27 44 -43 c24 -24 77 -82 117 -129z
m-2490 -978 c64 -28 138 -101 164 -160 37 -87 43 -161 39 -527 -3 -309 -5
-354 -21 -389 -44 -98 -85 -115 -282 -115 -165 0 -254 14 -340 54 -163 74
-244 247 -217 460 11 82 87 359 133 482 38 102 124 173 252 209 74 21 208 14
272 -14z m716 13 c122 -37 200 -98 239 -189 38 -90 130 -416 142 -505 21 -157
-17 -286 -112 -380 -95 -96 -211 -130 -443 -130 -192 0 -232 15 -281 105 -20
38 -21 54 -24 399 -2 236 1 382 8 424 25 146 117 250 247 281 62 15 166 12
224 -5z m-1251 -166 c-40 -87 -137 -420 -150 -518 -31 -223 56 -407 232 -492
74 -35 133 -47 281 -56 187 -12 272 4 335 61 l23 21 -6 -69 c-29 -327 -74
-552 -189 -960 -64 -227 -100 -378 -130 -545 -60 -328 -126 -470 -220 -470
-87 0 -120 75 -134 312 -5 70 -12 131 -16 135 -20 21 -50 -24 -124 -187 -71
-155 -113 -165 -175 -41 -35 69 -44 102 -92 339 -41 198 -54 308 -65 523 -24
485 44 1047 191 1569 10 36 18 92 18 125 1 71 23 119 84 184 36 37 152 131
163 131 1 0 -10 -28 -26 -62z m1618 -42 c83 -78 103 -119 112 -226 4 -47 19
-122 34 -167 84 -267 161 -771 174 -1141 15 -403 -12 -690 -102 -1077 -34
-146 -98 -255 -142 -241 -26 8 -59 59 -110 172 -51 114 -70 144 -89 144 -19 0
-22 -20 -30 -155 -9 -173 -34 -254 -86 -280 -42 -22 -74 -18 -110 12 -63 54
-112 194 -163 478 -27 147 -73 333 -140 572 -90 318 -134 531 -161 791 -20
187 -20 180 8 155 35 -32 80 -52 142 -61 73 -12 313 3 385 24 136 39 226 113
284 234 30 64 31 68 31 210 l-1 145 -58 195 c-31 107 -70 223 -86 257 l-28 61
36 -21 c20 -12 64 -48 100 -81z m-3617 -171 c32 -17 101 -22 138 -10 18 6 21
2 21 -27 0 -18 11 -49 23 -68 38 -56 46 -92 40 -176 -4 -52 0 -113 12 -179 16
-95 16 -100 -1 -112 -45 -33 -90 24 -100 128 -4 38 -10 69 -14 69 -4 0 -19 -9
-33 -20 -14 -12 -46 -30 -71 -41 -30 -13 -47 -27 -51 -42 -2 -12 -14 -63 -26
-113 l-21 -90 33 -55 c18 -30 41 -65 51 -78 19 -25 24 -66 8 -76 -11 -7 -146
99 -154 121 -8 21 -35 136 -52 221 l-14 73 51 172 c40 137 52 193 55 268 3 52
7 106 10 119 5 22 7 20 34 -22 16 -25 43 -53 61 -62z m5610 -18 c5 -92 15
-140 54 -270 26 -87 47 -174 47 -195 0 -45 -52 -275 -66 -294 -27 -33 -136
-119 -146 -113 -16 10 -12 48 7 75 10 14 33 50 52 80 32 53 33 57 21 100 -7
25 -18 72 -24 105 -15 74 -19 81 -52 89 -15 4 -47 21 -71 38 -25 16 -46 28
-47 26 -1 -1 -8 -36 -14 -77 -15 -105 -52 -150 -96 -118 -18 13 -18 17 -1 118
11 70 15 127 11 174 -7 80 2 122 40 176 18 27 25 47 22 67 l-4 29 70 -4 c84
-5 122 13 158 76 12 22 25 38 27 35 3 -2 8 -55 12 -117z m-5574 -464 c-3 -10
-11 -56 -18 -102 -13 -83 -13 -83 14 -131 29 -52 32 -67 17 -90 -11 -18 -22
-5 -71 80 -31 53 -31 57 -19 100 7 25 17 67 22 95 10 49 20 65 46 65 8 0 11
-7 9 -17z m5470 9 c6 -4 14 -25 18 -47 4 -22 14 -65 22 -96 15 -56 15 -57 -13
-105 -34 -60 -64 -95 -75 -88 -17 10 -9 55 16 94 27 42 30 73 16 130 -26 102
-22 136 16 112z m-3477 -2180 c11 -78 35 -135 70 -167 16 -15 36 -20 75 -20
46 0 58 4 85 30 18 17 45 55 61 85 31 58 31 47 -3 -64 -14 -46 -39 -92 -75
-140 -29 -39 -65 -95 -79 -125 -25 -50 -26 -60 -20 -140 3 -47 9 -104 12 -126
l7 -40 -21 26 c-27 34 -80 59 -123 59 -19 0 -57 -12 -86 -26 -35 -18 -60 -24
-76 -20 -14 3 -63 40 -109 83 -91 83 -133 113 -162 113 -10 0 -16 5 -13 13 15
41 37 181 47 302 6 77 17 181 24 230 11 76 14 85 21 60 11 -41 52 -125 73
-151 28 -33 57 -45 84 -35 46 18 65 47 159 256 l23 50 8 -90 c4 -49 12 -123
18 -163z m1530 131 c76 -179 145 -231 208 -154 12 15 61 113 77 156 10 26 30
-108 45 -305 10 -124 22 -202 46 -282 4 -13 0 -18 -13 -18 -28 0 -70 -30 -163
-114 -46 -42 -95 -79 -109 -83 -15 -4 -42 3 -76 21 -29 14 -67 26 -84 26 -43
0 -96 -26 -123 -59 l-21 -26 7 50 c20 149 19 200 -3 251 -12 27 -32 60 -45 74
-48 52 -93 130 -114 196 -33 108 -35 123 -8 69 14 -28 42 -66 61 -85 32 -31
42 -35 90 -35 107 0 142 73 160 338 4 55 10 95 15 90 4 -4 27 -54 50 -110z
m-1924 -662 c21 -16 71 -56 109 -90 39 -34 86 -66 106 -72 31 -10 42 -8 87 15
62 31 106 33 150 6 35 -22 71 -87 72 -130 0 -15 4 -30 9 -35 12 -14 31 -258
31 -407 0 -113 -3 -135 -27 -199 -19 -52 -40 -87 -73 -121 -42 -44 -50 -48
-92 -48 -77 0 -100 43 -123 227 -15 120 -57 109 -130 -32 -78 -152 -124 -187
-194 -151 -34 18 -75 105 -90 191 -47 266 -31 493 54 765 39 124 46 129 111
81z m2325 -18 c36 -84 88 -306 97 -419 21 -241 -24 -517 -95 -588 -61 -62
-127 -21 -202 125 -86 167 -120 171 -141 17 -21 -157 -46 -198 -121 -198 -83
0 -170 126 -189 274 -12 93 7 417 30 506 24 97 36 123 67 151 44 38 97 39 164
2 44 -23 53 -25 87 -15 22 7 70 41 117 83 84 75 131 109 153 109 7 0 22 -21
33 -47z m-2111 -790 c1 -39 31 -196 43 -224 30 -72 110 -101 181 -64 15 8 30
15 31 15 2 0 -6 -23 -16 -51 -34 -89 -126 -417 -165 -589 -40 -178 -44 -224
-48 -640 -2 -107 -6 -210 -10 -227 -17 -72 -103 -110 -214 -94 -82 11 -125 29
-188 77 -46 36 -135 70 -244 95 -58 13 -90 34 -90 60 0 29 62 89 92 89 14 0
33 8 42 19 9 10 29 21 44 24 30 6 141 111 177 167 31 47 57 199 56 324 -1 90
-36 513 -61 736 -15 127 -14 129 19 83 37 -52 68 -73 104 -73 67 0 110 46 186
198 23 45 46 82 51 82 6 0 10 -3 10 -7z m1870 -75 c81 -156 121 -198 189 -198
36 0 85 39 111 89 10 20 19 30 20 23 0 -7 -13 -149 -30 -315 -55 -553 -55
-553 -14 -803 10 -68 163 -234 214 -234 9 0 25 -9 35 -20 10 -11 29 -20 43
-20 29 0 92 -62 92 -90 0 -22 -32 -46 -75 -55 -104 -24 -233 -70 -255 -92 -58
-58 -199 -101 -287 -88 -44 6 -94 41 -116 79 -11 19 -19 262 -17 528 1 105
-11 202 -46 358 -34 152 -105 409 -148 538 -19 56 -33 102 -32 102 2 0 18 -7
35 -16 44 -22 114 -14 147 17 26 24 48 91 59 174 9 77 16 105 25 105 4 0 27
-37 50 -82z"/>
</g>
</svg>
