<svg xmlns="http://www.w3.org/2000/svg" viewBox="0 0 300 600" fill="none">
  <defs>
    <linearGradient id="muscleGradient" x1="0%" y1="0%" x2="0%" y2="100%">
      <stop offset="0%" style="stop-color:#e0e7ff;stop-opacity:1" />
      <stop offset="100%" style="stop-color:#c7d2fe;stop-opacity:1" />
    </linearGradient>
  </defs>
  
  <style>
    .body-part { 
      fill: url(#muscleGradient);
      stroke: #4f46e5; 
      stroke-width: 2; 
      cursor: pointer; 
      transition: all 0.3s ease;
      opacity: 0.8;
    }
    .body-part:hover { 
      fill: #818cf8;
      stroke: #3730a3; 
      stroke-width: 3;
      opacity: 1;
      filter: drop-shadow(0 4px 8px rgba(79, 70, 229, 0.4));
    }
    .body-neutral {
      fill: #f3f4f6;
      stroke: #9ca3af;
      stroke-width: 1.5;
    }
  </style>
  
  <!-- Tête -->
  <ellipse cx="150" cy="45" rx="32" ry="38" class="body-neutral"/>
  
  <!-- Cou -->
  <g onclick="window.location.href='/exercices/complementaires/cou'" class="body-part">
    <rect x="136" y="80" width="28" height="20" rx="4"/>
  </g>
  
  <!-- Épaule gauche (Deltoïde) -->
  <g onclick="window.location.href='/exercices/haut-du-corps/epaules'" class="body-part">
    <path d="M 105 105 Q 95 110 88 120 Q 85 125 88 132 Q 95 138 105 140 Q 112 135 115 128 Q 115 115 110 108 Z"/>
  </g>
  
  <!-- Épaule droite (Deltoïde) -->
  <g onclick="window.location.href='/exercices/haut-du-corps/epaules'" class="body-part">
    <path d="M 195 105 Q 205 110 212 120 Q 215 125 212 132 Q 205 138 195 140 Q 188 135 185 128 Q 185 115 190 108 Z"/>
  </g>
  
  <!-- Pectoraux -->
  <g onclick="window.location.href='/exercices/haut-du-corps/pectoraux-poitrine'" class="body-part">
    <path d="M 118 112 Q 125 118 135 122 L 150 125 L 165 122 Q 175 118 182 112 L 178 148 Q 170 155 150 158 Q 130 155 122 148 Z"/>
  </g>
  
  <!-- Biceps gauche -->
  <g onclick="window.location.href='/exercices/haut-du-corps/biceps'" class="body-part">
    <ellipse cx="88" cy="160" rx="18" ry="35" transform="rotate(-5 88 160)"/>
  </g>
  
  <!-- Biceps droit -->
  <g onclick="window.location.href='/exercices/haut-du-corps/biceps'" class="body-part">
    <ellipse cx="212" cy="160" rx="18" ry="35" transform="rotate(5 212 160)"/>
  </g>
  
  <!-- Avant-bras gauche -->
  <g onclick="window.location.href='/exercices/haut-du-corps/avant-bras'" class="body-part">
    <path d="M 78 195 Q 73 200 70 210 Q 68 220 70 230 Q 75 235 82 235 Q 88 230 90 220 Q 90 205 85 198 Z"/>
  </g>
  
  <!-- Avant-bras droit -->
  <g onclick="window.location.href='/exercices/haut-du-corps/avant-bras'" class="body-part">
    <path d="M 222 195 Q 227 200 230 210 Q 232 220 230 230 Q 225 235 218 235 Q 212 230 210 220 Q 210 205 215 198 Z"/>
  </g>
  
  <!-- Mains -->
  <ellipse cx="75" cy="248" rx="10" ry="14" class="body-neutral"/>
  <ellipse cx="225" cy="248" rx="10" ry="14" class="body-neutral"/>
  
  <!-- Abdominaux (6-pack) -->
  <g onclick="window.location.href='/exercices/centre-du-corps/abdominaux'" class="body-part">
    <rect x="128" y="160" width="44" height="60" rx="6"/>
    <!-- Lignes définition muscles -->
    <line x1="150" y1="165" x2="150" y2="215" stroke="#4338ca" stroke-width="1.5" opacity="0.3"/>
    <line x1="128" y1="180" x2="172" y2="180" stroke="#4338ca" stroke-width="1.5" opacity="0.3"/>
    <line x1="128" y1="195" x2="172" y2="195" stroke="#4338ca" stroke-width="1.5" opacity="0.3"/>
  </g>
  
  <!-- Obliques gauche -->
  <g onclick="window.location.href='/exercices/centre-du-corps/obliques'" class="body-part">
    <path d="M 122 165 L 126 175 L 126 208 L 122 215 L 118 210 L 118 170 Z"/>
  </g>
  
  <!-- Obliques droit -->
  <g onclick="window.location.href='/exercices/centre-du-corps/obliques'" class="body-part">
    <path d="M 178 165 L 174 175 L 174 208 L 178 215 L 182 210 L 182 170 Z"/>
  </g>
  
  <!-- Bassin -->
  <ellipse cx="150" cy="238" rx="42" ry="25" class="body-neutral"/>
  
  <!-- Quadriceps gauche -->
  <g onclick="window.location.href='/exercices/bas-du-corps/quadriceps'" class="body-part">
    <path d="M 120 260 Q 110 270 105 290 Q 102 320 108 350 Q 115 365 125 370 Q 132 365 135 350 Q 138 320 135 290 Q 130 270 125 262 Z"/>
    <!-- Ligne séparation muscle -->
    <line x1="120" y1="270" x2="125" y2="360" stroke="#4338ca" stroke-width="1.5" opacity="0.3"/>
  </g>
  
  <!-- Quadriceps droit -->
  <g onclick="window.location.href='/exercices/bas-du-corps/quadriceps'" class="body-part">
    <path d="M 180 260 Q 190 270 195 290 Q 198 320 192 350 Q 185 365 175 370 Q 168 365 165 350 Q 162 320 165 290 Q 170 270 175 262 Z"/>
    <!-- Ligne séparation muscle -->
    <line x1="180" y1="270" x2="175" y2="360" stroke="#4338ca" stroke-width="1.5" opacity="0.3"/>
  </g>
  
  <!-- Adducteurs -->
  <g onclick="window.location.href='/exercices/bas-du-corps/adducteurs'" class="body-part">
    <path d="M 138 265 Q 145 270 150 280 Q 155 270 162 265 L 160 330 Q 155 340 150 342 Q 145 340 140 330 Z"/>
  </g>
  
  <!-- Genoux -->
  <ellipse cx="120" cy="385" rx="18" ry="14" class="body-neutral"/>
  <ellipse cx="180" cy="385" rx="18" ry="14" class="body-neutral"/>
  
  <!-- Mollets gauche -->
  <g onclick="window.location.href='/exercices/bas-du-corps/mollets'" class="body-part">
    <path d="M 108 400 Q 102 410 100 430 Q 100 460 108 485 Q 115 492 125 492 Q 132 485 135 470 Q 138 440 135 420 Q 130 408 122 402 Z"/>
  </g>
  
  <!-- Mollets droit -->
  <g onclick="window.location.href='/exercices/bas-du-corps/mollets'" class="body-part">
    <path d="M 192 400 Q 198 410 200 430 Q 200 460 192 485 Q 185 492 175 492 Q 168 485 165 470 Q 162 440 165 420 Q 170 408 178 402 Z"/>
  </g>
  
  <!-- Chevilles et pieds -->
  <ellipse cx="116" cy="510" rx="14" ry="12" class="body-neutral"/>
  <ellipse cx="184" cy="510" rx="14" ry="12" class="body-neutral"/>
  <ellipse cx="116" cy="540" rx="22" ry="18" class="body-neutral"/>
  <ellipse cx="184" cy="540" rx="22" ry="18" class="body-neutral"/>
</svg>